<svg width="373" height="373" viewBox="0 0 373 373" fill="none" xmlns="http://www.w3.org/2000/svg">
<path d="M146.471 287.252C146.987 287.264 147.37 287.321 147.865 287.464C148.849 288.548 148.432 297.354 148.357 299.295C150.236 299.32 152.291 298.901 154.087 299.513C154.539 300.023 154.478 300.288 154.549 300.952L146.464 300.947C146.359 296.394 146.379 291.806 146.471 287.252Z" fill="white"/>
<path d="M70.5994 259.644C71.6236 262.256 74.559 262.511 75.9836 264.741C72.537 266.101 68.9311 267.119 65.3901 268.206C66.7426 265.139 68.6724 262.37 70.5994 259.644Z" fill="#ADADAD"/>
<path d="M187.689 298.85C188.99 295.544 190.172 291.899 191.952 288.82C192.331 288.164 192.807 287.309 193.587 287.099C194.015 287.272 194.003 287.322 194.231 287.732C194.26 288.384 193.913 288.98 193.65 289.562C192.671 291.586 189.596 300.026 188.25 300.939C187.97 301.13 187.436 301.101 187.137 300.977C185.881 300.457 182.12 291.227 181.352 289.27C181.059 288.524 180.768 288.011 181.106 287.243C181.427 287.262 181.732 287.308 182.05 287.357C183.902 288.731 186.491 296.375 187.689 298.85Z" fill="white"/>
<path d="M114.554 292.773C115.502 291.307 117.012 288.534 118.668 287.883C119.058 287.729 119.107 287.754 119.465 287.918C119.482 287.981 119.508 288.042 119.518 288.107C119.743 289.658 116.54 293.047 115.624 294.236C116.819 295.716 119.487 298.82 119.914 300.532C120.009 300.912 119.994 300.91 119.773 301.254L119.09 301.33C117.057 300.064 115.703 297.559 114.381 295.619C113.401 297.029 111.702 300.192 110.153 300.904C109.668 301.127 109.427 301.062 108.935 300.911L108.845 300.623C109.75 298.393 111.894 296.2 113.39 294.294C112.366 292.973 109.142 289.099 109.07 287.724C109.481 287.7 109.968 287.642 110.371 287.731C111.994 288.089 113.519 291.485 114.554 292.773Z" fill="white"/>
<path d="M241 287.477C242.235 287.389 243.465 287.578 244.65 287.922C245.506 288.169 246.359 288.415 246.8 289.233L246.652 289.713C245.197 290.487 242.658 288.78 240.855 289.2C240.335 289.321 239.833 289.65 239.586 290.134C239.392 290.515 239.37 290.961 239.5 291.365C240.13 293.328 244.039 293.84 245.72 294.773C246.534 295.225 247.269 295.843 247.484 296.788C247.67 297.605 247.461 298.499 246.983 299.179C246.11 300.422 244.698 300.864 243.28 301.126C241.369 301.122 238.636 301.004 237.182 299.602C237.093 299.086 237.267 298.975 237.513 298.54C239.04 297.851 241.449 299.834 243.407 299.496C244.143 299.368 244.656 298.988 245.056 298.365C245.233 298.09 245.432 297.659 245.332 297.334C244.792 295.574 241.569 295.156 240.1 294.45C239.041 293.942 237.804 293.144 237.447 291.949C237.193 291.103 237.512 290.24 237.905 289.49C238.585 288.193 239.686 287.867 241 287.477Z" fill="white"/>
<path d="M255.72 287.551C257.665 287.475 261.882 287.042 263.621 287.804C263.999 287.969 264.026 288.049 264.179 288.404L263.942 288.908C263.015 289.571 258.219 289.263 256.821 289.275L256.803 293.265C258.3 293.205 262.12 292.697 263.268 293.625C263.486 293.801 263.423 293.923 263.437 294.176C262.345 296.001 258.543 294.385 256.839 295.114L256.741 295.522L256.724 299.153C258.147 299.082 259.631 298.929 261.053 298.986C262.055 299.027 263.795 299.304 264.48 300.064L264.353 300.335C261.695 301.561 257.788 301.03 254.912 300.962C254.803 296.681 254.665 292.174 254.922 287.907C255.206 287.547 255.288 287.627 255.72 287.551Z" fill="white"/>
<path d="M201.668 287.469C203.638 287.454 209.202 287.026 210.671 287.925C210.927 288.081 210.852 288.052 210.908 288.366L210.542 288.814C208.686 289.68 205.538 289.232 203.5 289.212L203.498 293.277C205.606 293.164 208.064 292.794 209.973 293.855L210.007 294.346C208.506 295.529 205.354 295.157 203.513 295.145C203.613 296.453 203.566 297.793 203.574 299.105C205.335 299.067 208.665 298.632 210.201 299.424C210.651 299.655 210.966 299.87 211.112 300.366C211.078 300.409 211.05 300.456 211.01 300.493C210.011 301.418 203.329 301.077 201.66 301.071L201.668 287.469Z" fill="white"/>
<path d="M128.597 287.632C130.897 287.608 133.887 287.288 135.952 288.449C136.962 289.017 137.66 289.934 137.963 291.048C138.33 292.395 138.145 293.949 137.443 295.158C136.618 296.579 135.669 297.099 134.108 297.476C132.856 297.517 131.592 297.473 130.34 297.464C130.358 298.49 130.513 299.815 130.027 300.743C129.819 301.139 129.842 301.184 129.398 301.318C129.233 301.212 129.21 301.21 129.062 301.039C128.787 300.718 128.559 300.053 128.495 299.639C128.313 298.471 128.453 297.076 128.46 295.887C128.463 293.134 128.509 290.383 128.597 287.632ZM130.305 289.29C130.353 291.469 130.349 293.648 130.292 295.827C132.013 295.824 133.946 296.015 135.387 294.895C136.005 293.948 136.591 292.938 136.332 291.762C136.173 291.039 135.647 290.485 135.033 290.107C133.574 289.207 131.948 289.265 130.305 289.29Z" fill="white"/>
<path d="M219.369 287.493C221.741 287.437 224.715 287.097 226.951 287.978C227.976 288.383 228.879 289.121 229.28 290.171C229.73 291.349 229.609 292.68 229.058 293.802C228.416 295.11 227.553 295.657 226.217 296.138C227.007 297.311 229.357 299.392 229.271 300.773C228.809 301.14 228.492 301.102 227.915 301.172C226.314 299.844 225.312 298.11 224.206 296.381L221.345 296.399C221.357 297.283 221.364 298.166 221.365 299.05C221.364 299.756 221.396 300.402 220.839 300.927C220.52 301.229 220.48 301.259 220.063 301.257C218.97 300.009 219.421 289.756 219.369 287.493ZM221.3 289.172L221.332 294.911C223.272 294.922 225.064 295.059 226.777 293.988C227.29 293.344 227.836 292.461 227.739 291.595C227.662 290.912 227.232 290.437 226.677 290.084C225.114 289.09 223.089 289.099 221.3 289.172Z" fill="white"/>
<path d="M166.797 287.308C168.226 287.23 169.564 287.314 170.886 287.915C170.986 287.96 171.085 288.008 171.183 288.059C171.28 288.11 171.376 288.162 171.471 288.218C171.566 288.273 171.659 288.331 171.751 288.391C171.843 288.451 171.933 288.514 172.022 288.578C172.111 288.643 172.198 288.71 172.283 288.779C172.369 288.848 172.452 288.919 172.534 288.993C172.616 289.066 172.695 289.141 172.773 289.219C172.851 289.296 172.927 289.375 173.001 289.457C173.075 289.538 173.147 289.621 173.217 289.706C173.286 289.791 173.354 289.877 173.419 289.966C173.484 290.054 173.547 290.144 173.608 290.235C173.669 290.327 173.727 290.42 173.784 290.514C173.84 290.608 173.893 290.704 173.945 290.801C173.996 290.899 174.044 290.997 174.091 291.096C174.137 291.196 174.181 291.297 174.222 291.399C174.263 291.501 174.301 291.603 174.337 291.707C174.964 293.471 174.931 295.578 174.11 297.274C173.074 299.412 171.297 300.285 169.159 300.987C167.614 301.147 166.169 301.037 164.761 300.317C163.155 299.494 162.021 298.048 161.476 296.341C160.893 294.516 160.983 292.461 161.917 290.767C163.004 288.795 164.74 287.933 166.797 287.308ZM166.951 289.133C165.398 289.7 164.197 290.374 163.48 291.959C162.879 293.288 162.911 294.854 163.464 296.194C163.992 297.471 164.965 298.468 166.269 298.943C167.179 299.274 167.96 299.284 168.902 299.107C170.428 298.598 171.666 297.945 172.416 296.445C173.048 295.183 173.082 293.68 172.608 292.361C172.55 292.198 172.484 292.038 172.41 291.882C172.336 291.725 172.253 291.573 172.163 291.425C172.073 291.278 171.975 291.135 171.87 290.998C171.765 290.86 171.652 290.729 171.533 290.603C171.414 290.477 171.289 290.358 171.157 290.246C171.026 290.133 170.889 290.028 170.746 289.929C170.604 289.831 170.456 289.741 170.304 289.658C170.152 289.575 169.996 289.501 169.836 289.434C168.88 289.037 167.963 289.079 166.951 289.133Z" fill="white"/>
<path d="M102.02 224.746C103.654 225.841 105.086 227.228 106.683 228.38L106.908 228.6C106.989 229.151 104.448 232.204 104.012 232.922C103.044 234.515 101.681 237.24 102.222 239.122C102.391 239.708 102.746 240.166 103.309 240.417C107.587 242.331 122.186 233.129 126.282 230.668C127.988 229.643 129.786 228.31 131.607 227.558C131.722 227.51 131.838 227.465 131.953 227.42C131.908 227.518 131.866 227.618 131.819 227.715C131.599 228.164 131.222 228.356 130.805 228.595L130.726 228.972C131.787 229.905 135.246 232.275 136.668 232.136C137.288 232.075 138.246 231.684 138.799 231.88L138.831 232.12L138.876 232.172C135.994 234.078 133.089 235.948 130.161 237.781C128.66 238.716 126.812 239.609 125.444 240.712C110.261 249.754 92.6995 259.084 75.9838 264.741C74.5592 262.511 71.6238 262.256 70.5996 259.644C71.7761 258.052 72.8308 256.374 74.0306 254.794C82.3513 243.834 91.4907 233.638 102.02 224.746Z" fill="url(#paint0_linear_21_59)"/>
<path d="M100.725 122.184C103.061 124.986 105.196 128.014 107.694 130.673C106.835 132.555 106.131 134.585 105.193 136.418C103.19 141.911 101.475 147.302 100.472 153.078C97.5866 169.695 100.429 188.066 107.536 203.329C109.162 206.822 110.903 210.193 113.033 213.406C114.207 215.177 115.705 216.856 116.712 218.712C114.857 220.53 110.541 223.561 109.663 225.845C109.389 226.111 109.541 226.056 109.24 226.081C107.451 223.125 105.303 220.359 103.49 217.393C102.276 215.375 101.135 213.316 100.068 211.217C99.0002 209.118 98.0086 206.983 97.0929 204.813C96.1772 202.643 95.3397 200.443 94.5805 198.214C93.8212 195.985 93.1421 193.731 92.5431 191.453C86.7429 169.743 88.8382 142.548 100.219 122.887L100.725 122.184Z" fill="url(#paint1_linear_21_59)"/>
<path d="M100.725 122.184C103.06 124.986 105.196 128.014 107.694 130.673C106.835 132.555 106.131 134.585 105.193 136.418C104.97 136.671 104.743 136.888 104.486 137.107C104.288 135.92 103.823 134.876 103.51 133.725C102.503 130.023 101.605 126.47 100.218 122.887L100.725 122.184Z" fill="#0A7B9E"/>
<path d="M67.2095 68.4523C71.3531 69.8182 75.4661 72.2359 79.426 74.1053C91.8244 79.9573 104.091 85.9688 116.013 92.7568C111.757 94.5005 107.29 95.736 103.054 97.5249C102.305 97.8801 101.543 98.1916 100.775 98.5017C106.029 110.341 115.051 120.207 123.573 129.792C127.166 133.503 131.193 137.09 134.291 141.238C134.423 141.541 134.741 142.008 134.619 142.323C134.321 143.095 133 143.668 132.403 144.312C132.066 145.922 132.228 147.451 132.254 149.079C128.145 144.875 123.716 140.87 119.928 136.372C115.326 132.41 111.368 127.382 107.309 122.869C106.036 121.454 104.616 119.434 103.083 118.344C101.271 116.805 98.0597 112.449 96.4216 110.399C88.7155 100.76 81.4412 90.9413 74.7035 80.5982C72.1094 76.6156 69.4436 72.6516 67.2095 68.4523Z" fill="#001533"/>
<path d="M123.573 129.792C127.166 133.503 131.193 137.09 134.291 141.238C134.423 141.541 134.741 142.008 134.619 142.323C134.321 143.095 132.999 143.668 132.403 144.312C132.066 145.922 132.227 147.451 132.254 149.079C128.145 144.875 123.715 140.87 119.928 136.372C121.45 136.732 127.842 144.263 129.65 145.849C129.52 144.659 129.102 142.899 129.489 141.778C129.938 140.475 131.125 140.056 132.267 139.488C130.248 136.764 124.527 132.16 123.457 130.07L123.573 129.792Z" fill="#00457D"/>
<path d="M265.407 130.963C266.414 129.709 272.204 121.861 273.071 121.654L273.867 122.811C274.222 123.552 274.567 124.297 274.904 125.046C275.24 125.796 275.568 126.549 275.886 127.306C276.204 128.064 276.512 128.825 276.811 129.59C277.111 130.355 277.401 131.123 277.681 131.895C277.961 132.667 278.232 133.443 278.494 134.222C278.755 135 279.007 135.782 279.249 136.567C279.491 137.352 279.723 138.14 279.946 138.93C280.169 139.721 280.382 140.514 280.585 141.31C280.789 142.106 280.982 142.904 281.166 143.705C281.35 144.505 281.523 145.308 281.687 146.113C281.851 146.918 282.005 147.724 282.149 148.533C282.293 149.342 282.427 150.152 282.552 150.964C282.676 151.776 282.79 152.589 282.894 153.404C282.999 154.219 283.093 155.035 283.177 155.852C283.261 156.669 283.335 157.487 283.399 158.306C283.463 159.124 283.517 159.944 283.561 160.764C283.605 161.584 283.639 162.405 283.662 163.226C283.686 164.047 283.7 164.869 283.704 165.69C283.707 166.511 283.701 167.332 283.684 168.154C283.667 168.975 283.641 169.796 283.604 170.617C283.567 171.437 283.52 172.257 283.463 173.077C283.406 173.896 283.339 174.714 283.262 175.532C283.185 176.35 283.098 177.167 283.001 177.982C282.904 178.798 282.797 179.612 282.679 180.425C282.562 181.238 282.435 182.05 282.298 182.86C282.161 183.67 282.014 184.478 281.857 185.284C281.7 186.09 281.533 186.894 281.357 187.697C281.18 188.499 280.993 189.299 280.797 190.096C280.601 190.894 280.395 191.689 280.179 192.481C279.963 193.274 279.737 194.063 279.502 194.85C279.266 195.637 279.021 196.421 278.767 197.202C278.512 197.983 278.248 198.761 277.974 199.535C274.443 209.388 269.212 217.97 263.155 226.436C261.941 226.114 256.829 220.108 255.439 218.74C260.215 212.245 263.735 206.306 266.751 198.775C275.735 176.337 274.88 153.065 265.407 130.963Z" fill="#0A7B9E"/>
<path d="M137.287 238.144C137.394 238.169 137.502 238.192 137.608 238.22C138.924 238.564 142.832 241.369 144.412 242.241C147.398 243.89 150.531 245.422 153.677 246.739C154.19 246.952 154.705 247.16 155.222 247.362C155.739 247.565 156.257 247.762 156.778 247.954C157.299 248.147 157.822 248.334 158.346 248.516C158.871 248.698 159.397 248.875 159.925 249.047C160.453 249.218 160.983 249.385 161.514 249.546C162.045 249.707 162.578 249.863 163.112 250.014C163.647 250.165 164.182 250.31 164.72 250.45C165.257 250.591 165.795 250.726 166.335 250.855C166.875 250.985 167.416 251.109 167.959 251.228C168.501 251.347 169.044 251.461 169.589 251.569C170.133 251.677 170.679 251.78 171.226 251.877C171.772 251.975 172.32 252.067 172.868 252.154C173.416 252.24 173.965 252.322 174.516 252.398C175.065 252.474 175.616 252.544 176.167 252.609C176.719 252.674 177.271 252.734 177.823 252.788C178.376 252.842 178.929 252.891 179.483 252.934C180.036 252.978 180.59 253.015 181.144 253.048C181.698 253.08 182.253 253.107 182.808 253.129C183.363 253.15 183.918 253.166 184.473 253.177C185.028 253.187 185.583 253.192 186.138 253.192C186.693 253.192 187.248 253.186 187.803 253.174C188.359 253.163 188.914 253.146 189.468 253.124C190.023 253.102 190.577 253.074 191.132 253.041C191.686 253.008 192.24 252.969 192.793 252.925C193.347 252.881 193.9 252.831 194.452 252.776C195.004 252.721 195.556 252.661 196.108 252.595C196.659 252.529 197.21 252.458 197.76 252.381C198.309 252.305 198.858 252.222 199.407 252.135C199.955 252.048 200.502 251.955 201.049 251.857C201.595 251.758 202.14 251.655 202.685 251.546C203.229 251.437 203.773 251.322 204.315 251.202C204.857 251.083 205.398 250.958 205.937 250.827C211.38 249.497 216.542 247.587 221.712 245.455C226.569 243.827 230.785 240.969 235.018 238.15C238.433 240.286 241.786 242.524 245.211 244.643C241.809 246.75 238.566 249.027 235.074 251.013C234.307 251.454 233.534 251.886 232.755 252.307C231.976 252.728 231.192 253.139 230.402 253.539C229.612 253.939 228.817 254.329 228.017 254.708C227.217 255.087 226.412 255.456 225.602 255.814C224.793 256.172 223.978 256.519 223.159 256.855C222.34 257.192 221.517 257.517 220.689 257.832C219.862 258.147 219.03 258.45 218.194 258.743C217.359 259.035 216.519 259.317 215.676 259.587C214.833 259.858 213.987 260.117 213.137 260.365C212.287 260.613 211.434 260.85 210.578 261.075C209.721 261.301 208.862 261.515 208 261.717C207.139 261.92 206.274 262.111 205.407 262.291C204.54 262.471 203.671 262.639 202.8 262.796C201.928 262.953 201.055 263.098 200.179 263.232C199.304 263.366 198.427 263.488 197.549 263.599C196.671 263.709 195.791 263.808 194.91 263.895C171.658 266.266 146.138 258.744 128.027 243.992C130.804 241.684 134.445 240.474 137.287 238.144Z" fill="#626262"/>
<path d="M111.002 102.738C114.71 99.4682 118.013 95.8467 121.868 92.7207C139.066 78.7779 159.524 70.4947 181.704 69.4261C207.545 68.1812 234.129 77.2765 253.36 94.7384C256.553 97.671 259.694 100.681 262.452 104.034C259.525 106.136 256.552 108.171 253.535 110.14C243.84 98.7418 230.204 89.962 216.296 84.6131C211.278 83.3857 206.406 81.7509 201.285 80.9301C200.621 80.8259 199.957 80.7291 199.291 80.6397C198.625 80.5501 197.958 80.4679 197.291 80.393C196.623 80.318 195.955 80.2503 195.286 80.1901C194.617 80.1299 193.947 80.0769 193.277 80.0312C192.606 79.9856 191.936 79.9473 191.265 79.9165C190.594 79.8856 189.922 79.8621 189.251 79.8458C188.579 79.8295 187.908 79.8207 187.236 79.8192C186.564 79.8177 185.892 79.8236 185.221 79.8367C184.549 79.8498 183.878 79.8703 183.206 79.8983C182.535 79.9262 181.864 79.9615 181.194 80.0043C180.524 80.0468 179.854 80.0967 179.184 80.154C178.515 80.2114 177.846 80.276 177.178 80.3479C176.51 80.4198 175.844 80.4991 175.177 80.5858C174.511 80.6722 173.846 80.766 173.182 80.867C172.518 80.9683 171.855 81.0768 171.193 81.1924C170.531 81.308 169.871 81.4308 169.212 81.5607C168.553 81.6909 167.895 81.8283 167.239 81.9728C166.583 82.1173 165.929 82.269 165.276 82.4279C164.623 82.5867 163.972 82.7527 163.323 82.9259C162.674 83.0991 162.027 83.2793 161.382 83.4666C160.737 83.6538 160.094 83.8482 159.453 84.0495C158.812 84.2509 158.173 84.4592 157.537 84.6744C156.9 84.8898 156.267 85.1122 155.635 85.3415C155.004 85.5707 154.375 85.8068 153.749 86.0497C153.122 86.2929 152.499 86.5428 151.878 86.7995C151.257 87.056 150.639 87.3194 150.024 87.5898C149.409 87.8599 148.797 88.1368 148.188 88.4205C147.579 88.7042 146.974 88.9944 146.371 89.2912C145.768 89.5883 145.169 89.8918 144.573 90.2017C143.977 90.5116 143.384 90.8281 142.795 91.1512C142.206 91.4742 141.621 91.8037 141.039 92.1396C140.457 92.4753 139.879 92.8174 139.305 93.1659C131.899 97.6611 125.771 103.257 119.701 109.375C117.303 107.352 114.319 105.869 111.806 103.939C111.321 103.567 111.081 103.351 111.002 102.738Z" fill="#0A7B9E"/>
<path d="M191.716 192.993C194.47 191.375 196.873 189.079 199.284 186.996L208.027 179.468C223.762 165.913 239.125 152.087 253.384 136.964C260.101 129.841 266.231 122.271 272.672 114.915C272.281 116.659 273.277 119.149 273.38 121.023C273.416 121.677 273.621 122.21 273.867 122.811L273.071 121.654C272.205 121.861 266.415 129.709 265.408 130.963C274.881 153.065 275.735 176.337 266.751 198.775C263.735 206.306 260.215 212.245 255.44 218.74C256.829 220.108 261.941 226.114 263.155 226.436L262.967 226.898C263.161 227.298 263.254 227.519 263.71 227.686C263.912 227.76 264.14 227.726 264.338 227.67C264.351 228.468 270.024 234.125 270.615 236.704C270.777 237.412 270.696 238.088 270.283 238.695C269.815 239.383 269.042 239.719 268.248 239.871C259 241.638 219.377 213.854 210.353 207.238C206.937 204.757 203.57 202.211 200.253 199.599C197.433 197.382 194.653 195.046 191.716 192.993Z" fill="#001533"/>
<path d="M238.837 158.71L239.013 158.776C242.414 160.021 246.184 160.179 249.507 161.463C251.35 162.175 252.672 163.892 254.545 164.459C256.295 164.988 259.726 163.643 260.713 165.706C261.606 167.571 259.223 172.542 259.143 175.032C256.729 177.928 254.71 179.283 251.095 180.344L250.979 180.493C249.517 182.391 248.451 184.727 246.678 186.357C245.195 187.719 243.153 188.237 241.514 189.356C239.584 190.675 238.386 193.416 237.005 195.296C236.284 196.276 235.386 197.193 234.72 198.196C232.33 196.184 230.054 193.894 227.769 191.753C229.361 189.111 232.034 187.406 232.241 184.041C232.331 182.569 232.02 181.072 231.684 179.647C230.424 174.304 228.253 174.886 225 171.33C229.268 167.068 234.34 162.83 238.837 158.71Z" fill="#00457D"/>
<path d="M191.716 192.993C194.47 191.375 196.873 189.079 199.284 186.996L208.027 179.468C223.762 165.913 239.125 152.087 253.384 136.964C260.101 129.841 266.231 122.271 272.672 114.915C272.281 116.659 273.277 119.149 273.38 121.023C273.416 121.677 273.621 122.21 273.867 122.811L273.071 121.654C272.205 121.861 266.415 129.709 265.408 130.963C260.945 135.475 256.929 140.477 252.488 145.033L243.371 154.204C241.881 155.681 240.189 157.119 238.837 158.71C234.341 162.83 229.269 167.068 225 171.33C228.253 174.886 230.425 174.304 231.684 179.647C232.02 181.072 232.332 182.569 232.241 184.041C232.035 187.406 229.362 189.111 227.769 191.753C230.054 193.894 232.33 196.184 234.72 198.196C239.128 202.39 243.44 206.665 247.776 210.932C249.473 212.603 251.258 214.2 252.923 215.902C253.808 216.808 254.562 217.838 255.44 218.74C256.829 220.108 261.941 226.114 263.155 226.436L262.967 226.898C263.161 227.298 263.254 227.519 263.71 227.686C263.912 227.76 264.14 227.726 264.338 227.67C264.351 228.468 270.024 234.125 270.615 236.704C270.777 237.412 270.696 238.088 270.283 238.695C269.815 239.383 269.042 239.719 268.248 239.871C259 241.638 219.377 213.854 210.353 207.238C206.937 204.757 203.57 202.211 200.253 199.599C197.433 197.382 194.653 195.046 191.716 192.993Z" fill="black"/>
<path d="M214.706 179.868C218.211 177.105 221.555 174.164 225 171.33C228.253 174.886 230.425 174.304 231.684 179.647C232.02 181.072 232.332 182.569 232.241 184.041C232.035 187.406 229.361 189.111 227.769 191.753C226.11 190.508 224.673 188.938 223.146 187.535L214.706 179.868Z" fill="#001533"/>
<path d="M254.293 94.154C258.858 90.8896 264.185 88.4103 269.153 85.7947C281.087 79.5449 293.186 73.6318 305.45 68.0555C297.539 81.0303 289.014 93.5881 279.875 105.729C277.554 108.764 275.258 112.122 272.672 114.915C266.231 122.271 260.101 129.841 253.384 136.964C239.125 152.087 223.762 165.913 208.027 179.468L199.284 186.996C196.873 189.079 194.47 191.375 191.716 192.993C190.03 192.224 187.985 190.174 186.63 188.876C180.37 183.115 173.547 177.8 167.062 172.279C162.326 168.246 157.795 163.915 153.188 159.728C151.391 159.178 146.504 153.833 144.844 152.199C143.896 152.774 141.686 153.955 141.381 155.051C141.16 155.847 141.912 157.323 142.362 157.958C142.573 158.257 142.742 158.501 142.865 158.85C142.902 158.954 142.936 159.059 142.971 159.164C139.207 156.154 135.765 152.409 132.254 149.079C132.228 147.451 132.066 145.922 132.403 144.312C133 143.668 134.321 143.095 134.62 142.323C134.742 142.008 134.424 141.541 134.291 141.238C131.193 137.09 127.166 133.503 123.573 129.792C115.051 120.207 106.029 110.341 100.775 98.5017C101.543 98.1916 102.305 97.8801 103.054 97.5249C105.165 99.6085 108.476 101.197 111.002 102.738C111.082 103.351 111.321 103.567 111.807 103.939C114.319 105.869 117.303 107.352 119.701 109.375C121.306 110.783 123.229 111.964 124.981 113.194C128.165 115.443 131.363 117.67 134.577 119.877C142.912 125.557 151.143 131.384 159.271 137.359L172.27 147.113C174.097 148.497 178.848 152.739 180.7 153.345C182.619 154.957 184.554 156.594 186.613 158.025C187.687 157.183 188.749 156.299 189.864 155.512C192.263 153.813 194.588 151.978 196.936 150.208C198.805 148.798 200.83 147.421 202.541 145.824C214.059 137.176 225.773 128.801 237.683 120.701C242.916 117.12 248.383 113.827 253.535 110.14C256.553 108.171 259.525 106.136 262.452 104.034C259.694 100.681 256.553 97.671 253.36 94.7384L254.293 94.154Z" fill="black"/>
<path d="M134.291 141.238C137.937 144.228 141.231 147.923 144.618 151.224C147.134 153.676 151.144 157.084 153.188 159.728C151.391 159.178 146.504 153.833 144.844 152.199C143.895 152.774 141.685 153.955 141.381 155.051C141.159 155.847 141.911 157.323 142.361 157.958C142.573 158.257 142.741 158.501 142.865 158.85C142.902 158.954 142.935 159.059 142.97 159.164C139.206 156.154 135.765 152.408 132.254 149.079C132.227 147.451 132.066 145.922 132.403 144.312C132.999 143.668 134.321 143.095 134.619 142.323C134.741 142.008 134.423 141.541 134.291 141.238Z" fill="url(#paint2_linear_21_59)"/>
<path d="M254.293 94.154C258.857 90.8896 264.184 88.4103 269.153 85.7947C281.087 79.5449 293.186 73.6318 305.449 68.0555C297.539 81.0303 289.014 93.5881 279.875 105.729C277.554 108.764 275.258 112.122 272.671 114.915C266.23 122.271 260.1 129.841 253.384 136.964C239.125 152.087 223.762 165.913 208.027 179.468L199.284 186.996C196.873 189.079 194.47 191.375 191.716 192.993C190.03 192.224 187.985 190.174 186.629 188.876C188.679 186.856 191.134 185.075 193.346 183.224C197.423 179.797 201.465 176.329 205.47 172.818C213.698 165.728 221.671 158.362 229.39 150.721C237.109 143.08 244.555 135.182 251.729 127.027C256.873 121.173 262.368 115.071 266.406 108.383C264.874 107.358 263.653 105.437 262.451 104.034C259.694 100.681 256.552 97.671 253.359 94.7384L254.293 94.154Z" fill="#ADADAD"/>
<path d="M254.293 94.154C258.338 94.2068 266.061 93.2905 269.098 96.5215C269.966 97.4458 270.216 98.7374 270.159 99.9681C270.017 102.971 267.931 105.908 266.406 108.383C264.874 107.358 263.653 105.437 262.451 104.034C259.694 100.681 256.552 97.671 253.359 94.7384L254.293 94.154Z" fill="black"/>
<path d="M119.701 109.375C125.771 103.257 131.899 97.6611 139.305 93.1659C139.879 92.8174 140.457 92.4753 141.039 92.1396C141.621 91.8037 142.206 91.4742 142.795 91.1512C143.384 90.8281 143.977 90.5116 144.573 90.2017C145.169 89.8918 145.768 89.5883 146.371 89.2912C146.974 88.9944 147.579 88.7041 148.188 88.4204C148.797 88.1367 149.409 87.8599 150.024 87.5898C150.639 87.3194 151.257 87.056 151.878 86.7995C152.499 86.5428 153.122 86.2928 153.749 86.0497C154.375 85.8068 155.004 85.5707 155.635 85.3414C156.267 85.1122 156.901 84.8898 157.537 84.6743C158.173 84.4591 158.812 84.2509 159.453 84.0495C160.094 83.8481 160.737 83.6538 161.382 83.4666C162.027 83.2793 162.674 83.0991 163.323 82.9259C163.972 82.7527 164.623 82.5867 165.276 82.4278C165.929 82.269 166.583 82.1173 167.239 81.9728C167.895 81.8283 168.553 81.6909 169.212 81.5607C169.871 81.4308 170.531 81.308 171.193 81.1924C171.855 81.0768 172.518 80.9683 173.182 80.867C173.846 80.766 174.511 80.6722 175.177 80.5858C175.843 80.499 176.51 80.4197 177.178 80.3478C177.846 80.2759 178.515 80.2113 179.184 80.154C179.854 80.0967 180.523 80.0468 181.194 80.0043C181.864 79.9615 182.535 79.9262 183.206 79.8983C183.877 79.8703 184.549 79.8498 185.221 79.8367C185.892 79.8236 186.564 79.8177 187.236 79.8192C187.908 79.8206 188.579 79.8295 189.251 79.8458C189.922 79.8621 190.594 79.8856 191.265 79.9165C191.936 79.9473 192.606 79.9856 193.277 80.0312C193.947 80.0769 194.617 80.1298 195.286 80.1901C195.955 80.2503 196.623 80.318 197.291 80.393C197.958 80.4678 198.625 80.55 199.29 80.6397C199.956 80.7291 200.621 80.8259 201.285 80.9301C206.406 81.7509 211.278 83.3857 216.296 84.6131C230.204 89.962 243.84 98.7417 253.535 110.14C248.383 113.827 242.916 117.12 237.682 120.701C225.773 128.801 214.059 137.176 202.541 145.824C200.83 147.421 198.805 148.798 196.936 150.208C194.587 151.978 192.263 153.813 189.863 155.512C188.749 156.299 187.687 157.183 186.613 158.025C184.554 156.594 182.618 154.957 180.7 153.345C178.848 152.739 174.096 148.497 172.27 147.113L159.27 137.359C151.143 131.384 142.912 125.557 134.577 119.877C131.363 117.67 128.165 115.443 124.981 113.194C123.228 111.964 121.306 110.783 119.701 109.375Z" fill="#00457D"/>
<path d="M189.863 155.512C189.173 154.048 188.429 152.602 187.786 151.117C187.239 149.855 186.567 148.035 187.167 146.69C187.566 145.794 188.428 145.264 189.328 144.965C191.952 144.093 197.197 144.091 199.897 144.753C200.827 144.982 201.682 145.41 202.541 145.824C200.83 147.421 198.805 148.798 196.936 150.208C194.587 151.978 192.263 153.813 189.863 155.512Z" fill="#001533"/>
<path d="M119.701 109.375C125.771 103.257 131.899 97.6611 139.305 93.1659C139.879 92.8174 140.457 92.4753 141.039 92.1396C141.621 91.8037 142.206 91.4742 142.795 91.1512C143.384 90.8281 143.977 90.5116 144.573 90.2017C145.169 89.8918 145.768 89.5883 146.371 89.2912C146.974 88.9944 147.579 88.7041 148.188 88.4204C148.797 88.1367 149.409 87.8599 150.024 87.5898C150.639 87.3194 151.257 87.056 151.878 86.7995C152.499 86.5428 153.122 86.2928 153.749 86.0497C154.375 85.8068 155.004 85.5707 155.635 85.3414C156.267 85.1122 156.901 84.8898 157.537 84.6743C158.173 84.4591 158.812 84.2509 159.453 84.0495C160.094 83.8481 160.737 83.6538 161.382 83.4666C162.027 83.2793 162.674 83.0991 163.323 82.9259C163.972 82.7527 164.623 82.5867 165.276 82.4278C165.929 82.269 166.583 82.1173 167.239 81.9728C167.895 81.8283 168.553 81.6909 169.212 81.5607C169.871 81.4308 170.531 81.308 171.193 81.1924C171.855 81.0768 172.518 80.9683 173.182 80.867C173.846 80.766 174.511 80.6722 175.177 80.5858C175.843 80.499 176.51 80.4197 177.178 80.3478C177.846 80.2759 178.515 80.2113 179.184 80.154C179.854 80.0967 180.523 80.0468 181.194 80.0043C181.864 79.9615 182.535 79.9262 183.206 79.8983C183.877 79.8703 184.549 79.8498 185.221 79.8367C185.892 79.8236 186.564 79.8177 187.236 79.8192C187.908 79.8206 188.579 79.8295 189.251 79.8458C189.922 79.8621 190.594 79.8856 191.265 79.9165C191.936 79.9473 192.606 79.9856 193.277 80.0312C193.947 80.0769 194.617 80.1298 195.286 80.1901C195.955 80.2503 196.623 80.318 197.291 80.393C197.958 80.4678 198.625 80.55 199.29 80.6397C199.956 80.7291 200.621 80.8259 201.285 80.9301C206.406 81.7509 211.278 83.3857 216.296 84.6131L215.99 86.935C213.595 86.8079 211.348 86.7121 208.959 87.0141L208.768 87.1697C207.315 88.3727 206.377 89.9026 205.213 91.3643C202.771 94.4309 198.576 94.6214 194.969 94.3263C192.967 94.1624 191.246 93.6079 189.397 92.8453C188.332 93.1255 186.183 93.5543 185.655 94.6338C185.4 95.1545 185.476 96.0041 185.535 96.5575C186.104 101.885 187.222 103.695 182.531 107.468C181.398 108.379 180.242 109.342 178.949 110.021C176.963 111.063 175.632 110.743 173.601 110.099C171.783 109.522 170.06 108.655 168.218 108.143C164.747 107.18 161.409 106.828 158.037 105.38C156.897 106.221 154.769 107.652 154.545 109.142C154.453 109.755 154.605 110.26 154.987 110.738C156.696 112.874 162.361 113.603 165.01 115.467C166.535 118.193 166.141 123.573 166.143 126.738C167.305 128.739 168.248 131.247 169.811 132.95C170.957 134.2 172.608 134.959 173.539 136.411C174.824 138.415 175.441 140.873 176.438 143.03C177.581 145.5 179.058 147.837 180.032 150.381C180.405 151.358 180.622 152.301 180.7 153.345C178.848 152.739 174.096 148.497 172.27 147.113L159.27 137.359C151.143 131.384 142.912 125.557 134.577 119.877C131.363 117.67 128.165 115.443 124.981 113.194C123.228 111.964 121.306 110.783 119.701 109.375Z" fill="#001533"/>
<path d="M180.328 94.1016C180.748 94.2812 181.086 94.3377 181.266 94.8066C181.931 96.5463 180.243 100.422 179.37 101.972C178.619 103.305 177.463 104.864 175.898 105.244C174.634 105.55 173.338 104.384 172.336 103.739C171.677 103.615 171.004 103.283 170.507 102.828C170.052 102.411 169.589 101.793 169.637 101.145C169.809 98.8554 174.743 97.7555 176.461 96.8366C177.804 96.1189 179.095 95.0048 180.328 94.1016Z" fill="#00457D"/>
<path d="M103.083 118.344C104.616 119.434 106.036 121.454 107.309 122.869C111.368 127.382 115.326 132.41 119.928 136.372C123.715 140.87 128.145 144.875 132.254 149.079C135.765 152.409 139.206 156.154 142.97 159.164C142.935 159.059 142.902 158.954 142.865 158.85C142.741 158.501 142.573 158.257 142.361 157.958C141.911 157.323 141.159 155.847 141.381 155.051C141.686 153.955 143.895 152.774 144.844 152.199C146.504 153.833 151.391 159.178 153.188 159.728C157.794 163.915 162.325 168.246 167.062 172.279C173.546 177.8 180.369 183.115 186.629 188.876C187.985 190.174 190.03 192.224 191.715 192.993C194.653 195.046 197.433 197.382 200.252 199.599C203.57 202.211 206.936 204.757 210.352 207.238C219.377 213.854 258.999 241.638 268.248 239.871C269.042 239.719 269.814 239.383 270.282 238.695C270.696 238.088 270.777 237.412 270.614 236.704C270.023 234.125 264.351 228.468 264.338 227.67C266.52 225.837 268.102 223.553 270.154 221.618C275.497 227.002 280.662 232.829 285.524 238.658C293.513 247.372 300.537 256.93 307.703 266.312C304.372 265.567 301.065 264.725 297.782 263.787C294.5 262.849 291.247 261.816 288.025 260.688C284.803 259.56 281.617 258.339 278.466 257.025C275.315 255.711 272.205 254.306 269.136 252.811C262.479 249.911 256.333 245.932 249.917 242.568C249.066 242.286 248.624 242.038 247.776 242.474C246.834 242.957 246.12 244.036 245.21 244.643C241.785 242.524 238.433 240.286 235.018 238.15C230.785 240.969 226.568 243.827 221.711 245.455C216.541 247.587 211.379 249.497 205.937 250.827C205.397 250.958 204.856 251.083 204.314 251.203C203.772 251.322 203.229 251.437 202.685 251.546C202.14 251.655 201.595 251.758 201.048 251.857C200.502 251.955 199.954 252.048 199.406 252.135C198.858 252.222 198.309 252.305 197.759 252.381C197.209 252.458 196.659 252.529 196.107 252.595C195.556 252.661 195.004 252.721 194.452 252.776C193.899 252.831 193.346 252.881 192.793 252.925C192.239 252.969 191.685 253.008 191.131 253.041C190.577 253.074 190.023 253.102 189.468 253.124C188.913 253.146 188.358 253.163 187.803 253.174C187.248 253.186 186.693 253.191 186.137 253.192C185.582 253.192 185.027 253.187 184.472 253.177C183.917 253.166 183.362 253.15 182.807 253.129C182.252 253.107 181.698 253.08 181.144 253.048C180.59 253.015 180.036 252.978 179.482 252.934C178.929 252.891 178.376 252.842 177.823 252.788C177.27 252.734 176.718 252.674 176.167 252.609C175.616 252.544 175.065 252.474 174.515 252.398C173.965 252.322 173.416 252.24 172.868 252.154C172.319 252.067 171.772 251.975 171.225 251.877C170.678 251.78 170.133 251.677 169.588 251.569C169.044 251.461 168.5 251.347 167.958 251.228C167.416 251.109 166.875 250.985 166.335 250.855C165.795 250.726 165.257 250.591 164.719 250.45C164.182 250.31 163.646 250.165 163.112 250.014C162.577 249.863 162.045 249.707 161.513 249.546C160.982 249.385 160.453 249.218 159.925 249.047C159.397 248.875 158.87 248.698 158.346 248.516C157.821 248.334 157.299 248.147 156.778 247.954C156.257 247.762 155.738 247.565 155.221 247.362C154.704 247.16 154.189 246.952 153.677 246.739C150.531 245.422 147.397 243.89 144.411 242.241C142.832 241.369 138.923 238.564 137.608 238.22C137.501 238.192 137.394 238.169 137.287 238.144C134.444 240.474 130.804 241.684 128.027 243.992C127.089 242.964 126.277 241.825 125.444 240.712C126.812 239.609 128.659 238.716 130.161 237.781C133.089 235.948 135.994 234.078 138.875 232.172L138.831 232.119L138.799 231.88C138.246 231.684 137.288 232.075 136.668 232.136C135.246 232.275 131.787 229.905 130.726 228.972L130.805 228.595C131.222 228.356 131.599 228.164 131.819 227.715C131.866 227.618 131.908 227.518 131.953 227.42C131.838 227.465 131.722 227.51 131.607 227.558C129.786 228.31 127.988 229.643 126.282 230.668C122.186 233.129 107.587 242.331 103.309 240.417C102.746 240.166 102.39 239.708 102.222 239.122C101.681 237.24 103.044 234.515 104.012 232.922C104.448 232.204 106.989 229.151 106.908 228.6L106.683 228.38L107.274 228.372C108.013 227.788 109.119 227.047 109.24 226.081C109.541 226.056 109.389 226.111 109.662 225.845C110.54 223.561 114.856 220.53 116.711 218.712C115.705 216.856 114.207 215.177 113.033 213.406C110.903 210.193 109.162 206.822 107.536 203.329C100.428 188.066 97.5862 169.695 100.472 153.078C101.475 147.302 103.19 141.911 105.193 136.418C106.131 134.585 106.835 132.555 107.694 130.673C105.196 128.014 103.06 124.986 100.725 122.184C101.386 121.278 103.021 119.46 103.083 118.344Z" fill="black"/>
<path d="M139.931 163.671C142.102 164.792 145.754 168.744 147.804 170.566C151.559 173.902 155.539 177.077 159.147 180.564C157.568 181.666 156.048 182.846 154.59 184.103C153.814 184.763 153.031 185.606 152.202 186.183C150.288 183.796 148.758 180.883 147.248 178.226C144.591 173.549 141.822 168.722 139.931 163.671Z" fill="#001533"/>
<path d="M131.953 227.42C136.319 224.925 140.415 222.07 144.602 219.291C151.686 214.589 158.663 209.832 165.547 204.843C169.76 201.789 174.196 198.905 178.288 195.708C180.072 197.044 181.724 198.402 183.253 200.026C177.108 205.227 170.436 209.883 163.967 214.676C158.676 218.596 153.374 222.361 147.961 226.104C145.001 228.15 141.987 230.368 138.876 232.172L138.832 232.119L138.799 231.88C138.246 231.684 137.288 232.075 136.668 232.136C135.246 232.275 131.787 229.905 130.727 228.972L130.805 228.595C131.222 228.356 131.6 228.164 131.819 227.715C131.867 227.618 131.908 227.518 131.953 227.42Z" fill="#ADADAD"/>
<path d="M144.844 152.199C146.504 153.833 151.391 159.178 153.188 159.728C157.794 163.915 162.325 168.246 167.062 172.279C173.546 177.8 180.369 183.115 186.629 188.876C187.985 190.174 190.03 192.224 191.716 192.993C194.653 195.046 197.433 197.382 200.252 199.599C203.57 202.211 206.936 204.757 210.352 207.238C219.377 213.854 258.999 241.638 268.248 239.871C269.042 239.719 269.814 239.383 270.283 238.695C270.696 238.088 270.777 237.412 270.614 236.704C270.023 234.125 264.351 228.468 264.338 227.67C266.52 225.837 268.102 223.553 270.154 221.618C275.497 227.002 280.662 232.829 285.524 238.658C293.513 247.372 300.537 256.93 307.704 266.312C304.372 265.567 301.065 264.725 297.782 263.787C294.5 262.849 291.248 261.816 288.025 260.688C284.803 259.56 281.617 258.339 278.466 257.025C275.315 255.711 272.205 254.306 269.136 252.811C262.479 249.911 256.334 245.932 249.917 242.568C248.535 241.398 246.52 240.487 244.949 239.543C242.201 237.891 239.468 236.133 236.748 234.432C234.523 233.04 232.406 231.426 230.246 229.934C226.857 227.594 223.445 225.297 220.102 222.89C210.084 215.677 200.258 208.211 190.624 200.494C180.99 192.776 171.559 184.817 162.333 176.616C155.811 170.871 149.151 165.285 142.97 159.164C142.935 159.059 142.902 158.954 142.865 158.85C142.741 158.501 142.573 158.257 142.361 157.958C141.911 157.323 141.159 155.847 141.381 155.051C141.686 153.955 143.895 152.774 144.844 152.199Z" fill="#ADADAD"/>
<path d="M107.694 130.673C113.037 136.366 118.234 142.215 123.723 147.771C126.656 150.75 129.644 153.674 132.687 156.541C134.37 158.135 138.904 161.91 139.931 163.671C141.822 168.722 144.591 173.549 147.248 178.226C148.757 180.883 150.288 183.796 152.202 186.183C143.633 193.706 135.097 201.226 126.859 209.115C123.03 212.781 119.38 216.664 115.615 220.4C114.141 221.862 111.367 225.02 109.662 225.845C110.54 223.561 114.856 220.53 116.711 218.712C115.705 216.856 114.207 215.177 113.033 213.406C110.903 210.193 109.162 206.822 107.536 203.329C100.428 188.066 97.5862 169.695 100.472 153.078C101.475 147.302 103.19 141.911 105.193 136.418C106.131 134.585 106.835 132.555 107.694 130.673Z" fill="url(#paint3_linear_21_59)"/>
<path d="M186.936 202.908C189.884 204.936 192.651 207.385 195.451 209.622C200.048 213.27 204.69 216.86 209.377 220.393C213.475 223.448 217.636 226.506 221.873 229.365C225.377 231.73 229.077 233.939 232.441 236.493C233.332 237.008 234.213 237.504 235.018 238.15C230.785 240.969 226.568 243.827 221.712 245.455C216.542 247.587 211.379 249.497 205.937 250.827C205.398 250.958 204.857 251.083 204.314 251.203C203.772 251.322 203.229 251.437 202.685 251.546C202.14 251.655 201.595 251.758 201.049 251.857C200.502 251.955 199.955 252.048 199.406 252.135C198.858 252.222 198.309 252.305 197.759 252.381C197.209 252.458 196.659 252.529 196.107 252.595C195.556 252.661 195.004 252.721 194.452 252.776C193.899 252.831 193.346 252.881 192.793 252.925C192.239 252.969 191.686 253.008 191.131 253.041C190.577 253.074 190.023 253.102 189.468 253.124C188.913 253.146 188.358 253.163 187.803 253.174C187.248 253.186 186.693 253.192 186.138 253.192C185.582 253.192 185.027 253.187 184.472 253.177C183.917 253.166 183.362 253.15 182.807 253.129C182.253 253.107 181.698 253.08 181.144 253.048C180.59 253.015 180.036 252.978 179.482 252.934C178.929 252.891 178.376 252.842 177.823 252.788C177.271 252.734 176.719 252.674 176.167 252.609C175.616 252.544 175.065 252.474 174.515 252.398C173.965 252.322 173.416 252.24 172.868 252.154C172.319 252.067 171.772 251.975 171.225 251.877C170.679 251.78 170.133 251.677 169.588 251.569C169.044 251.461 168.501 251.347 167.958 251.228C167.416 251.109 166.875 250.985 166.335 250.855C165.795 250.726 165.257 250.591 164.719 250.45C164.182 250.31 163.646 250.165 163.112 250.014C162.578 249.863 162.045 249.707 161.514 249.546C160.982 249.385 160.453 249.218 159.925 249.047C159.397 248.875 158.871 248.698 158.346 248.516C157.821 248.334 157.299 248.147 156.778 247.954C156.257 247.762 155.738 247.565 155.222 247.362C154.704 247.16 154.19 246.952 153.677 246.739C150.531 245.422 147.397 243.89 144.412 242.241C142.832 241.369 138.923 238.564 137.608 238.22C137.502 238.192 137.394 238.169 137.287 238.144C139.243 236.318 141.756 235.026 143.989 233.558C147.61 231.155 151.201 228.708 154.763 226.217C161.416 221.466 168.033 216.665 174.614 211.815C177.048 210.016 181.384 205.84 183.96 204.963C184.939 204.26 185.931 203.575 186.936 202.908Z" fill="#393939"/>
<path d="M186.936 202.908C189.884 204.936 192.65 207.385 195.451 209.622C200.048 213.27 204.69 216.86 209.376 220.393C213.475 223.448 217.636 226.506 221.872 229.365C225.377 231.73 229.077 233.939 232.441 236.493C227.271 236.987 221.241 235.359 216.208 234.244C204.945 231.75 188.803 226.121 180.481 217.948C178.575 216.076 177.169 213.847 175.741 211.608C178.364 209.283 181.611 207.621 183.96 204.963C184.939 204.26 185.931 203.575 186.936 202.908Z" fill="#00457D"/>
<path d="M137.287 238.144C139.243 236.318 141.756 235.026 143.989 233.558C147.61 231.155 151.201 228.708 154.763 226.217C161.416 221.466 168.033 216.665 174.614 211.815C177.048 210.016 181.384 205.84 183.96 204.963C181.611 207.621 178.364 209.283 175.741 211.608C171.958 214.081 168.42 216.971 164.771 219.64C160.668 222.641 156.405 225.482 152.373 228.571C166.931 236.916 178.884 241.559 195.532 244.188C199.283 244.781 203.142 245.069 206.937 245.21C208.764 245.279 220.858 244.921 221.712 245.455C216.542 247.587 211.379 249.497 205.937 250.827C205.398 250.958 204.857 251.083 204.314 251.203C203.772 251.322 203.229 251.437 202.685 251.546C202.14 251.655 201.595 251.758 201.049 251.857C200.502 251.955 199.955 252.048 199.406 252.135C198.858 252.222 198.309 252.305 197.759 252.381C197.209 252.458 196.659 252.529 196.107 252.595C195.556 252.661 195.004 252.721 194.452 252.776C193.899 252.831 193.346 252.881 192.793 252.925C192.239 252.969 191.686 253.008 191.131 253.041C190.577 253.074 190.023 253.102 189.468 253.124C188.913 253.146 188.358 253.163 187.803 253.174C187.248 253.186 186.693 253.192 186.138 253.192C185.582 253.192 185.027 253.187 184.472 253.177C183.917 253.166 183.362 253.15 182.807 253.129C182.253 253.107 181.698 253.08 181.144 253.048C180.59 253.015 180.036 252.978 179.482 252.934C178.929 252.891 178.376 252.842 177.823 252.788C177.271 252.734 176.719 252.674 176.167 252.609C175.616 252.544 175.065 252.474 174.515 252.398C173.965 252.322 173.416 252.24 172.868 252.154C172.319 252.067 171.772 251.975 171.225 251.877C170.679 251.78 170.133 251.677 169.588 251.569C169.044 251.461 168.501 251.347 167.958 251.228C167.416 251.109 166.875 250.985 166.335 250.855C165.795 250.726 165.257 250.591 164.719 250.45C164.182 250.31 163.646 250.165 163.112 250.014C162.578 249.863 162.045 249.707 161.514 249.546C160.982 249.385 160.453 249.218 159.925 249.047C159.397 248.875 158.871 248.698 158.346 248.516C157.821 248.334 157.299 248.147 156.778 247.954C156.257 247.762 155.738 247.565 155.222 247.362C154.704 247.16 154.19 246.952 153.677 246.739C150.531 245.422 147.397 243.89 144.412 242.241C142.832 241.369 138.923 238.564 137.608 238.22C137.502 238.192 137.394 238.169 137.287 238.144Z" fill="black"/>
<defs>
<linearGradient id="paint0_linear_21_59" x1="98.9956" y1="269.391" x2="109.27" y2="224.289" gradientUnits="userSpaceOnUse">
<stop stop-color="#878787"/>
<stop offset="1" stop-color="#B1B1B1"/>
</linearGradient>
<linearGradient id="paint1_linear_21_59" x1="89.369" y1="178.512" x2="113.674" y2="172.054" gradientUnits="userSpaceOnUse">
<stop stop-color="#616161"/>
<stop offset="1" stop-color="#2085A3"/>
</linearGradient>
<linearGradient id="paint2_linear_21_59" x1="132.202" y1="145.038" x2="143.571" y2="153.993" gradientUnits="userSpaceOnUse">
<stop stop-color="#BFD4BA"/>
<stop offset="1" stop-color="#9B9B99"/>
</linearGradient>
<linearGradient id="paint3_linear_21_59" x1="101.302" y1="209.507" x2="136.11" y2="147.113" gradientUnits="userSpaceOnUse">
<stop stop-color="#202020"/>
<stop offset="1" stop-color="#434242"/>
</linearGradient>
</defs>
</svg>
