<?xml version="1.0" encoding="utf-8" ?>
<svg xmlns="http://www.w3.org/2000/svg" xmlns:xlink="http://www.w3.org/1999/xlink" width="3217" height="3217">
	<path fill="#0A7B9E" transform="scale(3.14228 3.14228)" d="M402.023 788.426C403.437 788.459 404.489 788.614 405.848 789.007C408.548 791.983 407.404 816.152 407.198 821.479C412.355 821.547 417.996 820.398 422.925 822.079C424.166 823.479 423.998 824.205 424.194 826.029L402.002 826.015C401.714 813.518 401.768 800.925 402.023 788.426Z"/>
	<path fill="#ADADAD" transform="scale(3.14228 3.14228)" d="M193.776 712.649C196.587 719.819 204.644 720.518 208.554 726.639C199.094 730.372 189.197 733.167 179.478 736.149C183.19 727.73 188.487 720.131 193.776 712.649Z"/>
	<path fill="#0A7B9E" transform="scale(3.14228 3.14228)" d="M515.154 820.258C518.725 811.185 521.969 801.179 526.853 792.73C527.895 790.927 529.201 788.582 531.342 788.004C532.517 788.481 532.482 788.617 533.109 789.743C533.189 791.532 532.236 793.167 531.513 794.764C528.828 800.321 520.387 823.485 516.694 825.993C515.925 826.515 514.46 826.436 513.638 826.096C510.192 824.669 499.868 799.336 497.761 793.964C496.957 791.915 496.156 790.507 497.084 788.399C497.967 788.452 498.804 788.578 499.677 788.713C504.758 792.485 511.866 813.464 515.154 820.258Z"/>
	<path fill="#0A7B9E" transform="scale(3.14228 3.14228)" d="M314.417 803.579C317.021 799.554 321.165 791.943 325.709 790.156C326.78 789.735 326.916 789.802 327.896 790.252C327.945 790.425 328.016 790.594 328.042 790.772C328.661 795.028 319.868 804.332 317.356 807.594C320.635 811.657 327.958 820.175 329.129 824.874C329.39 825.917 329.348 825.912 328.744 826.856L326.867 827.065C321.287 823.591 317.571 816.715 313.944 811.389C311.254 815.259 306.591 823.941 302.338 825.897C301.006 826.509 300.347 826.33 298.996 825.916L298.749 825.124C301.233 819.003 307.118 812.984 311.224 807.754C308.413 804.128 299.563 793.495 299.367 789.721C300.493 789.656 301.832 789.495 302.936 789.739C307.391 790.723 311.577 800.043 314.417 803.579Z"/>
	<path fill="#0A7B9E" transform="scale(3.14228 3.14228)" d="M661.477 789.042C664.866 788.802 668.241 789.321 671.495 790.263C673.844 790.943 676.186 791.617 677.396 793.861L676.989 795.18C672.997 797.305 666.028 792.618 661.079 793.771C659.651 794.104 658.273 795.007 657.596 796.336C657.063 797.382 657.003 798.605 657.36 799.715C659.088 805.102 669.817 806.506 674.431 809.068C676.665 810.308 678.683 812.004 679.273 814.599C679.783 816.84 679.209 819.294 677.898 821.16C675.502 824.574 671.625 825.785 667.734 826.506C662.488 826.495 654.988 826.171 650.996 822.321C650.753 820.905 651.229 820.6 651.905 819.408C656.097 817.517 662.709 822.96 668.082 822.03C670.102 821.68 671.511 820.637 672.61 818.927C673.096 818.171 673.641 816.989 673.367 816.097C671.885 811.267 663.039 810.118 659.005 808.182C656.1 806.786 652.705 804.597 651.723 801.317C651.028 798.995 651.903 796.627 652.982 794.568C654.848 791.008 657.871 790.112 661.477 789.042Z"/>
	<path fill="#0A7B9E" transform="scale(3.14228 3.14228)" d="M701.879 789.245C707.218 789.036 718.791 787.848 723.566 789.939C724.601 790.392 724.676 790.612 725.097 791.588L724.446 792.971C721.901 794.789 708.738 793.945 704.901 793.977L704.85 804.93C708.96 804.765 719.444 803.369 722.597 805.918C723.195 806.401 723.02 806.735 723.059 807.43C720.061 812.438 709.626 808.002 704.951 810.004L704.68 811.124L704.634 821.09C708.54 820.896 712.614 820.475 716.516 820.632C719.267 820.743 724.042 821.503 725.921 823.589L725.574 824.335C718.278 827.698 707.554 826.242 699.66 826.055C699.362 814.305 698.984 801.935 699.687 790.223C700.468 789.236 700.692 789.455 701.879 789.245Z"/>
	<path fill="#0A7B9E" transform="scale(3.14228 3.14228)" d="M553.521 789.021C558.928 788.979 574.2 787.805 578.233 790.271C578.934 790.7 578.728 790.62 578.882 791.482L577.879 792.712C572.783 795.089 564.143 793.86 558.549 793.805L558.544 804.962C564.33 804.651 571.076 803.637 576.317 806.549L576.409 807.897C572.289 811.142 563.639 810.122 558.586 810.089C558.861 813.678 558.732 817.357 558.753 820.959C563.586 820.853 572.725 819.659 576.943 821.833C578.178 822.469 579.042 823.057 579.442 824.419C579.349 824.536 579.272 824.667 579.163 824.768C576.421 827.306 558.081 826.372 553.5 826.355L553.521 789.021Z"/>
	<path fill="#0A7B9E" transform="scale(3.14228 3.14228)" d="M352.962 789.467C359.276 789.403 367.482 788.524 373.151 791.711C375.923 793.269 377.838 795.786 378.671 798.845C379.678 802.541 379.17 806.806 377.243 810.124C374.979 814.025 372.372 815.451 368.088 816.488C364.653 816.599 361.184 816.479 357.746 816.455C357.795 819.271 358.222 822.908 356.887 825.453C356.316 826.54 356.379 826.665 355.16 827.033C354.708 826.741 354.645 826.737 354.24 826.266C353.483 825.386 352.859 823.56 352.682 822.425C352.183 819.217 352.567 815.389 352.587 812.125Q352.599 800.793 352.962 789.467ZM357.652 794.019Q357.848 802.991 357.615 811.962C362.339 811.953 367.644 812.478 371.6 809.402C373.295 806.804 374.905 804.031 374.193 800.803C373.756 798.82 372.314 797.298 370.628 796.26C366.622 793.792 362.161 793.951 357.652 794.019Z"/>
	<path fill="#0A7B9E" transform="scale(3.14228 3.14228)" d="M602.106 789.086C608.614 788.932 616.779 788 622.915 790.418C625.73 791.528 628.207 793.555 629.308 796.437C630.544 799.671 630.211 803.322 628.699 806.403C626.936 809.993 624.569 811.494 620.901 812.814C623.07 816.033 629.519 821.747 629.283 825.535C628.015 826.543 627.146 826.44 625.56 826.632C621.168 822.987 618.416 818.227 615.381 813.482L607.528 813.53Q607.578 817.169 607.583 820.808C607.58 822.744 607.668 824.517 606.141 825.959C605.263 826.788 605.154 826.87 604.009 826.866C601.009 823.438 602.248 795.299 602.106 789.086ZM607.405 793.694L607.492 809.447C612.817 809.477 617.737 809.854 622.438 806.913C623.847 805.145 625.344 802.721 625.077 800.345C624.867 798.47 623.687 797.167 622.163 796.198C617.873 793.47 612.314 793.494 607.405 793.694Z"/>
	<path fill="#0A7B9E" transform="scale(3.14228 3.14228)" d="M457.811 788.579C461.732 788.364 465.405 788.595 469.034 790.244Q469.445 790.431 469.847 790.64Q470.248 790.848 470.639 791.076Q471.029 791.304 471.407 791.551Q471.786 791.799 472.151 792.065Q472.516 792.332 472.868 792.616Q473.219 792.901 473.556 793.203Q473.892 793.505 474.213 793.823Q474.534 794.142 474.838 794.476Q475.143 794.811 475.43 795.16Q475.717 795.51 475.986 795.873Q476.254 796.236 476.505 796.613Q476.755 796.99 476.986 797.378Q477.217 797.767 477.428 798.167Q477.638 798.567 477.829 798.977Q478.019 799.387 478.189 799.807Q478.358 800.226 478.506 800.653C480.226 805.494 480.135 811.277 477.881 815.932C475.038 821.8 470.161 824.197 464.294 826.124C460.052 826.563 456.085 826.262 452.221 824.284C447.814 822.027 444.7 818.057 443.205 813.373C441.606 808.362 441.853 802.721 444.416 798.072C447.399 792.661 452.163 790.294 457.811 788.579ZM458.233 793.588C453.97 795.144 450.673 796.994 448.706 801.345C447.057 804.993 447.144 809.291 448.662 812.967C450.11 816.473 452.781 819.21 456.361 820.513C458.859 821.422 461.003 821.449 463.588 820.964C467.777 819.567 471.173 817.773 473.233 813.657C474.967 810.194 475.061 806.068 473.759 802.448Q473.522 801.776 473.216 801.132Q472.91 800.488 472.538 799.88Q472.166 799.272 471.733 798.706Q471.3 798.14 470.81 797.623Q470.319 797.105 469.778 796.642Q469.236 796.178 468.649 795.774Q468.062 795.37 467.436 795.029Q466.81 794.688 466.152 794.415C463.526 793.325 461.009 793.439 458.233 793.588Z"/>
	<defs>
		<linearGradient id="gradient_0" gradientUnits="userSpaceOnUse" x1="271.71497" y1="739.40094" x2="299.91577" y2="615.60962">
			<stop offset="0" stop-color="#878787"/>
			<stop offset="1" stop-color="#B1B1B1"/>
		</linearGradient>
	</defs>
	<path fill="url(#gradient_0)" transform="scale(3.14228 3.14228)" d="M280.017 616.865C284.501 619.868 288.431 623.676 292.814 626.837L293.433 627.443C293.654 628.954 286.68 637.335 285.483 639.304C282.827 643.677 279.086 651.157 280.571 656.321C281.033 657.929 282.01 659.186 283.554 659.877C295.297 665.13 335.365 639.873 346.608 633.119C351.292 630.305 356.227 626.645 361.224 624.581C361.539 624.451 361.857 624.328 362.174 624.202C362.051 624.472 361.936 624.746 361.806 625.013C361.203 626.245 360.167 626.772 359.023 627.427L358.807 628.464C361.717 631.025 371.211 637.528 375.115 637.147C376.816 636.981 379.447 635.907 380.963 636.445L381.053 637.102L381.174 637.247Q369.311 645.093 357.256 652.641C353.134 655.207 348.062 657.659 344.308 660.686C302.634 685.505 254.434 711.111 208.554 726.639C204.644 720.518 196.587 719.819 193.776 712.649C197.005 708.279 199.9 703.673 203.193 699.337C226.031 669.256 251.116 641.269 280.017 616.865Z"/>
	<defs>
		<linearGradient id="gradient_1" gradientUnits="userSpaceOnUse" x1="245.29196" y1="489.96567" x2="312.00302" y2="472.23895">
			<stop offset="0" stop-color="#616161"/>
			<stop offset="1" stop-color="#2085A3"/>
		</linearGradient>
	</defs>
	<path fill="url(#gradient_1)" transform="scale(3.14228 3.14228)" d="M276.461 335.36C282.872 343.05 288.733 351.361 295.589 358.659C293.232 363.826 291.299 369.398 288.725 374.429C283.227 389.506 278.52 404.302 275.767 420.156C267.847 465.764 275.648 516.187 295.155 558.081C299.619 567.668 304.397 576.921 310.243 585.74C313.465 590.601 317.577 595.207 320.34 600.303C315.248 605.293 303.402 613.612 300.992 619.88C300.242 620.61 300.659 620.46 299.832 620.529C294.922 612.416 289.025 604.822 284.05 596.683Q279.052 588.374 274.657 579.731Q270.262 571.087 266.492 562.154Q262.722 553.22 259.596 544.041Q256.47 534.863 254.004 525.485C238.084 465.896 243.835 391.253 275.071 337.29L276.461 335.36Z"/>
	<path fill="#0A7B9E" transform="scale(3.14228 3.14228)" d="M276.461 335.36C282.872 343.05 288.733 351.361 295.589 358.659C293.232 363.826 291.299 369.398 288.725 374.429C288.113 375.124 287.49 375.719 286.785 376.32C286.241 373.061 284.965 370.195 284.106 367.037C281.343 356.876 278.876 347.123 275.071 337.29L276.461 335.36Z"/>
	<path fill="#001533" transform="scale(3.14228 3.14228)" d="M184.471 187.882C195.844 191.631 207.133 198.267 218.002 203.398C252.032 219.46 285.699 235.96 318.424 254.591C306.742 259.377 294.48 262.768 282.853 267.678C280.797 268.653 278.706 269.508 276.598 270.359C291.02 302.856 315.782 329.935 339.173 356.241C349.034 366.427 360.087 376.274 368.591 387.659C368.954 388.489 369.827 389.771 369.492 390.637C368.673 392.755 365.046 394.328 363.409 396.095C362.483 400.514 362.927 404.71 363 409.18C351.721 397.641 339.564 386.649 329.168 374.301C316.538 363.429 305.673 349.627 294.532 337.241C291.039 333.358 287.142 327.813 282.933 324.821C277.961 320.597 269.146 308.64 264.65 303.015C243.499 276.557 223.533 249.608 205.04 221.219C197.92 210.288 190.603 199.408 184.471 187.882Z"/>
	<path fill="#00457D" transform="scale(3.14228 3.14228)" d="M339.173 356.241C349.034 366.427 360.087 376.274 368.591 387.659C368.954 388.489 369.827 389.771 369.492 390.637C368.673 392.755 365.046 394.328 363.409 396.095C362.483 400.514 362.927 404.71 363 409.18C351.721 397.641 339.564 386.649 329.168 374.301C333.346 375.291 350.891 395.962 355.854 400.315C355.497 397.047 354.35 392.218 355.41 389.141C356.642 385.565 359.902 384.413 363.035 382.854C357.495 375.377 341.792 362.742 338.855 357.004L339.173 356.241Z"/>
	<path fill="#0A7B9E" transform="scale(3.14228 3.14228)" d="M728.468 359.456C731.232 356.013 747.124 334.475 749.502 333.906L751.687 337.082Q753.148 340.132 754.533 343.217Q755.919 346.302 757.228 349.42Q758.537 352.538 759.769 355.687Q761.001 358.836 762.156 362.015Q763.31 365.194 764.386 368.4Q765.462 371.606 766.459 374.837Q767.456 378.069 768.373 381.324Q769.291 384.579 770.127 387.855Q770.964 391.132 771.721 394.428Q772.477 397.724 773.152 401.038Q773.826 404.352 774.42 407.681Q775.013 411.01 775.524 414.353Q776.036 417.696 776.465 421.05Q776.894 424.405 777.24 427.769Q777.587 431.133 777.85 434.504Q778.114 437.875 778.295 441.252Q778.476 444.629 778.573 448.01Q778.671 451.39 778.686 454.772Q778.701 458.153 778.632 461.534Q778.564 464.916 778.412 468.294Q778.261 471.672 778.026 475.046Q777.792 478.419 777.475 481.786Q777.157 485.153 776.757 488.511Q776.357 491.869 775.875 495.216Q775.393 498.564 774.828 501.898Q774.264 505.232 773.618 508.552Q772.972 511.871 772.244 515.174Q771.517 518.476 770.708 521.76Q769.9 525.043 769.011 528.306Q768.122 531.569 767.153 534.809Q766.184 538.049 765.136 541.264Q764.088 544.48 762.961 547.668C753.269 574.71 738.911 598.267 722.285 621.502C718.953 620.618 704.922 604.133 701.109 600.379C714.216 582.552 723.878 566.252 732.155 545.58C756.815 483.994 754.469 420.121 728.468 359.456Z"/>
	<path fill="#626262" transform="scale(3.14228 3.14228)" d="M376.814 653.637C377.107 653.707 377.403 653.769 377.695 653.845C381.305 654.791 392.033 662.489 396.369 664.883C404.564 669.408 413.164 673.614 421.799 677.229Q423.91 678.105 426.039 678.939Q428.167 679.773 430.311 680.564Q432.455 681.356 434.615 682.106Q436.774 682.855 438.948 683.562Q441.122 684.269 443.309 684.933Q445.496 685.597 447.696 686.217Q449.896 686.838 452.108 687.415Q454.32 687.993 456.542 688.526Q458.765 689.06 460.998 689.549Q463.23 690.039 465.472 690.485Q467.714 690.93 469.965 691.332Q472.215 691.733 474.473 692.09Q476.73 692.447 478.995 692.76Q481.259 693.072 483.529 693.34Q485.799 693.608 488.074 693.831Q490.349 694.054 492.628 694.233Q494.907 694.411 497.188 694.544Q499.47 694.677 501.754 694.766Q504.039 694.854 506.324 694.898Q508.609 694.941 510.895 694.94Q513.181 694.938 515.466 694.891Q517.752 694.845 520.036 694.753Q522.32 694.661 524.601 694.525Q526.883 694.388 529.162 694.207Q531.44 694.026 533.715 693.799Q535.989 693.573 538.259 693.302Q540.529 693.031 542.793 692.715Q545.057 692.399 547.314 692.039Q549.571 691.679 551.821 691.275Q554.07 690.87 556.312 690.421Q558.553 689.972 560.785 689.479Q563.017 688.987 565.239 688.45C580.176 684.798 594.345 679.557 608.535 673.703C621.866 669.237 633.439 661.39 645.057 653.653C654.43 659.517 663.632 665.66 673.033 671.475C663.696 677.259 654.796 683.509 645.212 688.959Q642.052 690.777 638.846 692.51Q635.639 694.244 632.387 695.892Q629.136 697.54 625.842 699.101Q622.548 700.662 619.214 702.136Q615.88 703.61 612.508 704.995Q609.136 706.38 605.729 707.675Q602.321 708.971 598.881 710.175Q595.441 711.38 591.969 712.493Q588.498 713.607 584.999 714.628Q581.5 715.649 577.975 716.577Q574.45 717.505 570.901 718.34Q567.353 719.174 563.783 719.915Q560.214 720.655 556.627 721.301Q553.039 721.947 549.435 722.497Q545.832 723.048 542.215 723.503Q538.599 723.958 534.971 724.317C471.151 730.824 401.107 710.178 351.398 669.69C359.019 663.355 369.012 660.032 376.814 653.637Z"/>
	<path fill="#0A7B9E" transform="scale(3.14228 3.14228)" d="M304.669 281.986C314.846 273.012 323.912 263.072 334.494 254.492C381.696 216.223 437.849 193.488 498.726 190.555C569.651 187.138 642.618 212.102 695.4 260.03C704.164 268.079 712.787 276.34 720.355 285.545Q708.305 294.196 695.881 302.302C669.272 271.018 631.846 246.92 593.67 232.239C579.898 228.87 566.526 224.383 552.47 222.13Q549.738 221.701 546.997 221.333Q544.255 220.964 541.507 220.656Q538.758 220.347 536.004 220.099Q533.249 219.851 530.49 219.663Q527.73 219.475 524.968 219.348Q522.205 219.221 519.44 219.154Q516.675 219.087 513.909 219.081Q511.143 219.075 508.378 219.129Q505.613 219.183 502.849 219.298Q500.086 219.413 497.326 219.589Q494.566 219.764 491.81 220Q489.054 220.236 486.304 220.532Q483.555 220.828 480.812 221.185Q478.069 221.541 475.335 221.957Q472.601 222.374 469.876 222.85Q467.152 223.326 464.438 223.861Q461.725 224.397 459.024 224.992Q456.323 225.587 453.636 226.241Q450.948 226.895 448.276 227.608Q445.603 228.321 442.947 229.092Q440.291 229.863 437.653 230.692Q435.014 231.521 432.394 232.407Q429.774 233.294 427.175 234.238Q424.575 235.182 421.997 236.182Q419.418 237.183 416.862 238.24Q414.306 239.296 411.774 240.409Q409.242 241.521 406.735 242.689Q404.228 243.857 401.747 245.079Q399.266 246.302 396.812 247.578Q394.358 248.854 391.933 250.184Q389.508 251.514 387.113 252.897Q384.717 254.279 382.353 255.714C362.026 268.052 345.207 283.41 328.546 300.203C321.964 294.652 313.772 290.579 306.877 285.284C305.545 284.261 304.887 283.668 304.669 281.986Z"/>
	<path fill="#001533" transform="scale(3.14228 3.14228)" d="M526.205 529.711C533.764 525.269 540.36 518.967 546.977 513.252L570.975 492.588C614.164 455.385 656.33 417.436 695.467 375.928C713.902 356.376 730.727 335.599 748.406 315.41C747.333 320.197 750.068 327.03 750.35 332.173C750.448 333.97 751.011 335.433 751.687 337.082L749.502 333.906C747.124 334.475 731.232 356.013 728.468 359.456C754.469 420.121 756.815 483.994 732.155 545.58C723.878 566.252 714.216 582.552 701.109 600.379C704.922 604.133 718.953 620.618 722.285 621.502L721.769 622.771C722.301 623.868 722.558 624.475 723.809 624.933C724.364 625.136 724.988 625.043 725.533 624.889C725.568 627.08 741.138 642.606 742.76 649.685C743.206 651.628 742.984 653.484 741.849 655.151C740.564 657.038 738.443 657.961 736.265 658.377C710.88 663.227 602.127 586.968 577.358 568.81Q563.294 558.595 549.636 547.843C541.898 541.758 534.268 535.346 526.205 529.711Z"/>
	<path fill="#00457D" transform="scale(3.14228 3.14228)" d="M655.539 435.613L656.023 435.794C665.357 439.212 675.705 439.645 684.825 443.169C689.884 445.124 693.514 449.838 698.655 451.393C703.458 452.845 712.873 449.154 715.583 454.815C718.034 459.936 711.493 473.58 711.275 480.414C704.648 488.363 699.106 492.082 689.186 494.992L688.865 495.403C684.854 500.611 681.929 507.023 677.061 511.497C672.992 515.236 667.387 516.656 662.888 519.729C657.591 523.348 654.301 530.873 650.511 536.032C648.534 538.722 646.069 541.239 644.24 543.993C637.679 538.47 631.433 532.183 625.162 526.307C629.532 519.056 636.869 514.375 637.436 505.139C637.684 501.1 636.829 496.99 635.907 493.08C632.45 478.415 626.49 480.013 617.56 470.253C629.277 458.555 643.198 446.922 655.539 435.613Z"/>
	<path transform="scale(3.14228 3.14228)" d="M526.205 529.711C533.764 525.269 540.36 518.967 546.977 513.252L570.975 492.588C614.164 455.385 656.33 417.436 695.467 375.928C713.902 356.376 730.727 335.599 748.406 315.41C747.333 320.197 750.068 327.03 750.35 332.173C750.448 333.97 751.011 335.433 751.687 337.082L749.502 333.906C747.124 334.475 731.232 356.013 728.468 359.456C716.22 371.84 705.198 385.569 693.008 398.074L667.985 423.245C663.895 427.3 659.251 431.247 655.539 435.613C643.198 446.922 629.277 458.555 617.56 470.253C626.49 480.013 632.45 478.415 635.907 493.08C636.829 496.99 637.684 501.1 637.436 505.139C636.869 514.375 629.532 519.056 625.162 526.307C631.433 532.183 637.679 538.47 644.24 543.993C656.339 555.502 668.174 567.237 680.073 578.949C684.733 583.535 689.631 587.917 694.2 592.59C696.631 595.076 698.701 597.902 701.109 600.379C704.922 604.133 718.953 620.618 722.285 621.502L721.769 622.771C722.301 623.868 722.558 624.475 723.809 624.933C724.364 625.136 724.988 625.043 725.533 624.889C725.568 627.08 741.138 642.606 742.76 649.685C743.206 651.628 742.984 653.484 741.849 655.151C740.564 657.038 738.443 657.961 736.265 658.377C710.88 663.227 602.127 586.968 577.358 568.81Q563.294 558.595 549.636 547.843C541.898 541.758 534.268 535.346 526.205 529.711Z"/>
	<path fill="#001533" transform="scale(3.14228 3.14228)" d="M589.307 493.687C598.928 486.102 608.105 478.032 617.56 470.253C626.49 480.013 632.45 478.415 635.907 493.08C636.829 496.99 637.684 501.1 637.436 505.139C636.869 514.375 629.532 519.056 625.162 526.307C620.608 522.89 616.664 518.58 612.473 514.73L589.307 493.687Z"/>
	<path transform="scale(3.14228 3.14228)" d="M697.962 258.426C710.49 249.466 725.111 242.661 738.748 235.482Q787.882 209.751 838.372 186.793Q805.803 240.211 768.178 290.196C761.807 298.526 755.504 307.743 748.406 315.41C730.727 335.599 713.902 356.376 695.467 375.928C656.33 417.436 614.164 455.385 570.975 492.588L546.977 513.252C540.36 518.967 533.764 525.269 526.205 529.711C521.579 527.601 515.965 521.973 512.245 518.412C495.063 502.599 476.336 488.01 458.538 472.856C445.537 461.787 433.101 449.899 420.458 438.409C415.525 436.898 402.112 422.227 397.556 417.744C394.952 419.32 388.887 422.563 388.05 425.571C387.443 427.755 389.507 431.806 390.742 433.55C391.323 434.371 391.785 435.04 392.124 435.997C392.226 436.283 392.317 436.572 392.413 436.86C382.082 428.599 372.636 418.318 363 409.18C362.927 404.71 362.483 400.514 363.409 396.095C365.046 394.328 368.673 392.755 369.492 390.637C369.827 389.771 368.954 388.489 368.591 387.659C360.087 376.274 349.034 366.427 339.173 356.241C315.782 329.935 291.02 302.856 276.598 270.359C278.706 269.508 280.797 268.653 282.853 267.678C288.647 273.397 297.736 277.756 304.669 281.986C304.887 283.668 305.545 284.261 306.877 285.284C313.772 290.579 321.964 294.652 328.546 300.203C332.95 304.069 338.227 307.309 343.037 310.685Q356.144 319.944 369.375 329.027Q403.692 352.414 437.152 377.011L472.833 403.783C477.845 407.581 490.886 419.224 495.971 420.889C501.236 425.313 506.549 429.806 512.199 433.735C515.148 431.424 518.062 428.997 521.121 426.836C527.708 422.172 534.087 417.137 540.534 412.277C545.664 408.409 551.221 404.628 555.917 400.246Q603.338 364.639 652.371 331.289C666.736 321.461 681.741 312.422 695.881 302.302Q708.305 294.196 720.355 285.545C712.787 276.34 704.164 268.079 695.4 260.03L697.962 258.426Z"/>
	<defs>
		<linearGradient id="gradient_2" gradientUnits="userSpaceOnUse" x1="362.85614" y1="398.08698" x2="394.06302" y2="422.66785">
			<stop offset="0" stop-color="#BFD4BA"/>
			<stop offset="1" stop-color="#9B9B99"/>
		</linearGradient>
	</defs>
	<path fill="url(#gradient_2)" transform="scale(3.14228 3.14228)" d="M368.591 387.659C378.599 395.865 387.64 406.007 396.937 415.066C403.842 421.796 414.849 431.152 420.458 438.409C415.525 436.898 402.112 422.227 397.556 417.744C394.952 419.32 388.887 422.563 388.05 425.571C387.443 427.755 389.507 431.806 390.742 433.55C391.323 434.371 391.785 435.04 392.124 435.997C392.226 436.283 392.317 436.572 392.413 436.86C382.082 428.599 372.636 418.318 363 409.18C362.927 404.71 362.483 400.514 363.409 396.095C365.046 394.328 368.673 392.755 369.492 390.637C369.827 389.771 368.954 388.489 368.591 387.659Z"/>
	<path fill="#ADADAD" transform="scale(3.14228 3.14228)" d="M697.962 258.426C710.49 249.466 725.111 242.661 738.748 235.482Q787.882 209.751 838.372 186.793Q805.803 240.211 768.178 290.196C761.807 298.526 755.504 307.743 748.406 315.41C730.727 335.599 713.902 356.376 695.467 375.928C656.33 417.436 614.164 455.385 570.975 492.588L546.977 513.252C540.36 518.967 533.764 525.269 526.205 529.711C521.579 527.601 515.965 521.973 512.245 518.412C517.87 512.867 524.609 507.977 530.679 502.897Q547.466 488.789 563.958 474.337Q597.832 445.145 629.611 413.687Q661.391 382.229 690.925 348.654C705.043 332.586 720.126 315.838 731.209 297.48C727.004 294.668 723.652 289.394 720.355 285.545C712.787 276.34 704.164 268.079 695.4 260.03L697.962 258.426Z"/>
	<path transform="scale(3.14228 3.14228)" d="M697.962 258.426C709.064 258.571 730.262 256.056 738.597 264.924C740.981 267.461 741.668 271.006 741.509 274.384C741.121 282.625 735.396 290.687 731.209 297.48C727.004 294.668 723.652 289.394 720.355 285.545C712.787 276.34 704.164 268.079 695.4 260.03L697.962 258.426Z"/>
	<path fill="#00457D" transform="scale(3.14228 3.14228)" d="M328.546 300.203C345.207 283.41 362.026 268.052 382.353 255.714Q384.717 254.279 387.113 252.897Q389.508 251.514 391.933 250.184Q394.358 248.854 396.812 247.578Q399.266 246.302 401.747 245.079Q404.228 243.857 406.735 242.689Q409.242 241.521 411.774 240.409Q414.306 239.296 416.862 238.24Q419.418 237.183 421.997 236.182Q424.575 235.182 427.175 234.238Q429.775 233.294 432.394 232.407Q435.014 231.521 437.653 230.692Q440.291 229.863 442.947 229.092Q445.604 228.321 448.276 227.608Q450.948 226.895 453.636 226.241Q456.323 225.587 459.024 224.992Q461.725 224.397 464.438 223.861Q467.152 223.326 469.876 222.85Q472.601 222.374 475.335 221.957Q478.069 221.541 480.812 221.185Q483.555 220.828 486.304 220.532Q489.054 220.236 491.81 220Q494.566 219.764 497.326 219.589Q500.086 219.413 502.849 219.298Q505.613 219.183 508.378 219.129Q511.143 219.075 513.909 219.081Q516.675 219.087 519.44 219.154Q522.205 219.221 524.968 219.348Q527.73 219.475 530.49 219.663Q533.249 219.851 536.004 220.099Q538.758 220.347 541.507 220.656Q544.255 220.964 546.996 221.333Q549.738 221.701 552.47 222.13C566.526 224.383 579.898 228.87 593.67 232.239C631.846 246.92 669.272 271.018 695.881 302.302C681.741 312.422 666.736 321.461 652.371 331.289Q603.338 364.639 555.917 400.246C551.221 404.628 545.664 408.409 540.534 412.277C534.087 417.137 527.708 422.172 521.121 426.836C518.062 428.997 515.148 431.424 512.199 433.735C506.549 429.806 501.236 425.313 495.971 420.889C490.886 419.224 477.845 407.581 472.833 403.783L437.152 377.011Q403.692 352.414 369.375 329.027Q356.145 319.944 343.037 310.685C338.227 307.309 332.95 304.069 328.546 300.203Z"/>
	<path fill="#001533" transform="scale(3.14228 3.14228)" d="M521.121 426.836C519.227 422.819 517.183 418.849 515.418 414.774C513.917 411.308 512.072 406.315 513.719 402.621C514.816 400.162 517.182 398.708 519.652 397.887C526.853 395.493 541.25 395.488 548.659 397.307C551.214 397.934 553.56 399.108 555.917 400.246C551.221 404.628 545.664 408.409 540.534 412.277C534.087 417.137 527.708 422.172 521.121 426.836Z"/>
	<path fill="#001533" transform="scale(3.14228 3.14228)" d="M328.546 300.203C345.207 283.41 362.026 268.052 382.353 255.714Q384.717 254.279 387.113 252.897Q389.508 251.514 391.933 250.184Q394.358 248.854 396.812 247.578Q399.266 246.302 401.747 245.079Q404.228 243.857 406.735 242.689Q409.242 241.521 411.774 240.409Q414.306 239.296 416.862 238.24Q419.418 237.183 421.997 236.182Q424.575 235.182 427.175 234.238Q429.775 233.294 432.394 232.407Q435.014 231.521 437.653 230.692Q440.291 229.863 442.947 229.092Q445.604 228.321 448.276 227.608Q450.948 226.895 453.636 226.241Q456.323 225.587 459.024 224.992Q461.725 224.397 464.438 223.861Q467.152 223.326 469.876 222.85Q472.601 222.374 475.335 221.957Q478.069 221.541 480.812 221.185Q483.555 220.828 486.304 220.532Q489.054 220.236 491.81 220Q494.566 219.764 497.326 219.589Q500.086 219.413 502.849 219.298Q505.613 219.183 508.378 219.129Q511.143 219.075 513.909 219.081Q516.675 219.087 519.44 219.154Q522.205 219.221 524.968 219.348Q527.73 219.475 530.49 219.663Q533.249 219.851 536.004 220.099Q538.758 220.347 541.507 220.656Q544.255 220.964 546.996 221.333Q549.738 221.701 552.47 222.13C566.526 224.383 579.898 228.87 593.67 232.239L592.831 238.612C586.258 238.263 580.09 238 573.533 238.829L573.008 239.256C569.021 242.558 566.446 246.757 563.251 250.769C556.55 259.186 545.034 259.709 535.136 258.899C529.639 258.449 524.915 256.927 519.841 254.834C516.918 255.603 511.021 256.78 509.571 259.743C508.871 261.172 509.08 263.504 509.242 265.023C510.802 279.646 513.871 284.612 500.997 294.968C497.887 297.47 494.714 300.112 491.164 301.975C485.714 304.835 482.06 303.959 476.487 302.191C471.495 300.608 466.766 298.226 461.71 296.822C452.183 294.178 443.021 293.212 433.768 289.239C430.639 291.547 424.797 295.475 424.183 299.564C423.931 301.246 424.346 302.632 425.395 303.943C430.086 309.806 445.634 311.808 452.907 316.925C457.091 324.405 456.009 339.173 456.016 347.861C459.205 353.352 461.793 360.236 466.083 364.911C469.229 368.34 473.761 370.425 476.316 374.41C479.842 379.909 481.535 386.656 484.273 392.576C487.41 399.356 491.464 405.77 494.136 412.754C495.161 415.434 495.757 418.022 495.971 420.889C490.886 419.224 477.845 407.581 472.833 403.783L437.152 377.011Q403.692 352.414 369.375 329.027Q356.145 319.944 343.037 310.685C338.227 307.309 332.95 304.069 328.546 300.203Z"/>
	<path fill="#00457D" transform="scale(3.14228 3.14228)" d="M494.949 258.282C496.103 258.775 497.03 258.93 497.523 260.217C499.35 264.992 494.716 275.63 492.32 279.883C490.259 283.542 487.086 287.823 482.791 288.864C479.321 289.705 475.763 286.505 473.013 284.733C471.204 284.393 469.357 283.483 467.993 282.234C466.744 281.09 465.473 279.392 465.606 277.614C466.077 271.33 479.621 268.311 484.336 265.789C488.022 263.819 491.565 260.761 494.949 258.282Z"/>
	<path transform="scale(3.14228 3.14228)" d="M282.933 324.821C287.142 327.813 291.039 333.358 294.532 337.241C305.673 349.627 316.538 363.429 329.168 374.301C339.564 386.649 351.721 397.641 363 409.18C372.636 418.318 382.082 428.599 392.413 436.86C392.317 436.572 392.226 436.283 392.124 435.997C391.785 435.04 391.323 434.371 390.742 433.55C389.507 431.806 387.443 427.755 388.05 425.571C388.887 422.563 394.952 419.32 397.556 417.744C402.112 422.227 415.525 436.898 420.458 438.409C433.101 449.899 445.537 461.787 458.538 472.856C476.336 488.01 495.063 502.599 512.245 518.412C515.965 521.973 521.579 527.601 526.205 529.711C534.268 535.346 541.898 541.758 549.636 547.843Q563.294 558.595 577.358 568.81C602.127 586.968 710.88 663.227 736.265 658.377C738.443 657.961 740.564 657.038 741.849 655.151C742.984 653.484 743.206 651.628 742.76 649.685C741.138 642.606 725.568 627.08 725.533 624.889C731.521 619.857 735.865 613.59 741.497 608.279C756.162 623.055 770.337 639.049 783.683 655.048C805.609 678.965 824.889 705.2 844.559 730.95Q830.843 727.883 817.328 724.021Q803.814 720.159 790.548 715.515Q777.282 710.871 764.31 705.461Q751.338 700.051 738.703 693.893C720.43 685.935 703.563 675.013 685.952 665.779C683.617 665.005 682.402 664.325 680.075 665.521C677.489 666.849 675.529 669.81 673.033 671.475C663.632 665.66 654.43 659.517 645.057 653.653C633.439 661.39 621.866 669.237 608.535 673.703C594.345 679.557 580.176 684.798 565.239 688.45Q563.017 688.987 560.785 689.48Q558.553 689.972 556.312 690.421Q554.07 690.87 551.821 691.275Q549.571 691.679 547.314 692.039Q545.057 692.399 542.793 692.715Q540.529 693.031 538.259 693.302Q535.989 693.573 533.715 693.799Q531.44 694.026 529.162 694.207Q526.883 694.388 524.601 694.525Q522.32 694.662 520.036 694.753Q517.752 694.845 515.466 694.891Q513.181 694.938 510.895 694.94Q508.609 694.941 506.324 694.898Q504.039 694.854 501.754 694.766Q499.47 694.677 497.188 694.544Q494.907 694.411 492.628 694.233Q490.349 694.054 488.074 693.831Q485.799 693.608 483.529 693.34Q481.259 693.072 478.995 692.76Q476.73 692.447 474.473 692.09Q472.215 691.733 469.965 691.332Q467.714 690.93 465.472 690.485Q463.23 690.039 460.998 689.549Q458.765 689.06 456.542 688.526Q454.32 687.993 452.108 687.415Q449.896 686.838 447.696 686.217Q445.496 685.597 443.309 684.933Q441.122 684.269 438.948 683.562Q436.774 682.855 434.615 682.106Q432.455 681.356 430.311 680.564Q428.167 679.773 426.039 678.939Q423.91 678.105 421.799 677.229C413.164 673.614 404.564 669.408 396.369 664.883C392.033 662.489 381.305 654.791 377.695 653.845C377.403 653.769 377.107 653.707 376.814 653.637C369.012 660.032 359.019 663.355 351.398 669.69C348.825 666.868 346.594 663.741 344.308 660.686C348.062 657.659 353.134 655.207 357.256 652.641Q369.311 645.093 381.174 637.247L381.053 637.102L380.963 636.445C379.447 635.907 376.816 636.981 375.115 637.147C371.211 637.528 361.717 631.025 358.807 628.464L359.023 627.427C360.167 626.772 361.203 626.245 361.806 625.013C361.936 624.746 362.051 624.472 362.174 624.202C361.857 624.328 361.539 624.451 361.224 624.581C356.227 626.645 351.292 630.305 346.608 633.119C335.365 639.873 295.297 665.13 283.554 659.877C282.01 659.186 281.033 657.929 280.571 656.321C279.086 651.157 282.827 643.677 285.483 639.304C286.68 637.335 293.654 628.954 293.433 627.443L292.814 626.837L294.438 626.815C296.466 625.212 299.502 623.18 299.832 620.529C300.659 620.46 300.242 620.61 300.992 619.88C303.402 613.612 315.248 605.293 320.34 600.303C317.577 595.207 313.465 590.601 310.243 585.74C304.397 576.921 299.619 567.668 295.155 558.081C275.648 516.187 267.847 465.764 275.767 420.156C278.52 404.302 283.227 389.506 288.725 374.429C291.299 369.398 293.232 363.826 295.589 358.659C288.733 351.361 282.872 343.05 276.461 335.36C278.277 332.873 282.764 327.884 282.933 324.821Z"/>
	<path fill="#001533" transform="scale(3.14228 3.14228)" d="M384.071 449.231C390.029 452.308 400.053 463.153 405.681 468.155C415.986 477.312 426.909 486.026 436.814 495.597Q430.31 500.133 424.305 505.311C422.176 507.123 420.026 509.437 417.751 511.019C412.497 504.467 408.297 496.472 404.155 489.181C396.862 476.343 389.262 463.093 384.071 449.231Z"/>
	<path fill="#ADADAD" transform="scale(3.14228 3.14228)" d="M362.174 624.202C374.156 617.354 385.398 609.519 396.89 601.891C416.335 588.985 435.484 575.929 454.38 562.235C465.943 553.854 478.117 545.937 489.349 537.164C494.247 540.83 498.781 544.556 502.978 549.014C486.112 563.29 467.798 576.07 450.043 589.224C435.519 599.984 420.969 610.318 406.111 620.591C397.987 626.207 389.715 632.296 381.174 637.247L381.053 637.102L380.963 636.445C379.447 635.907 376.816 636.981 375.115 637.147C371.211 637.528 361.717 631.025 358.807 628.464L359.023 627.427C360.167 626.772 361.203 626.245 361.806 625.013C361.936 624.746 362.051 624.472 362.174 624.202Z"/>
	<path fill="#ADADAD" transform="scale(3.14228 3.14228)" d="M397.556 417.744C402.112 422.227 415.525 436.898 420.458 438.409C433.101 449.899 445.537 461.787 458.538 472.856C476.336 488.01 495.063 502.599 512.245 518.412C515.965 521.973 521.579 527.601 526.205 529.711C534.268 535.346 541.898 541.758 549.636 547.843Q563.294 558.595 577.358 568.81C602.127 586.968 710.88 663.227 736.265 658.377C738.443 657.961 740.564 657.038 741.849 655.151C742.984 653.484 743.206 651.628 742.76 649.685C741.138 642.606 725.568 627.08 725.533 624.889C731.521 619.857 735.865 613.59 741.497 608.279C756.162 623.055 770.337 639.049 783.683 655.048C805.609 678.965 824.889 705.2 844.559 730.95Q830.843 727.883 817.328 724.021Q803.814 720.159 790.548 715.515Q777.282 710.871 764.31 705.461Q751.338 700.051 738.703 693.893C720.43 685.935 703.563 675.013 685.952 665.779C682.158 662.568 676.628 660.069 672.315 657.477C664.773 652.944 657.273 648.119 649.807 643.449C643.699 639.628 637.89 635.199 631.959 631.104C622.657 624.68 613.294 618.377 604.117 611.771Q562.875 582.072 523.209 550.299Q483.544 518.525 445.559 484.76C427.656 468.992 409.378 453.659 392.413 436.86C392.317 436.572 392.226 436.283 392.124 435.997C391.785 435.04 391.323 434.371 390.742 433.55C389.507 431.806 387.443 427.755 388.05 425.571C388.887 422.563 394.952 419.32 397.556 417.744Z"/>
	<defs>
		<linearGradient id="gradient_3" gradientUnits="userSpaceOnUse" x1="278.04526" y1="575.03656" x2="373.58401" y2="403.78235">
			<stop offset="0" stop-color="#202020"/>
			<stop offset="1" stop-color="#434242"/>
		</linearGradient>
	</defs>
	<path fill="url(#gradient_3)" transform="scale(3.14228 3.14228)" d="M295.589 358.659C310.256 374.287 324.519 390.341 339.585 405.589Q351.661 417.856 364.189 429.661C368.808 434.035 381.252 444.398 384.071 449.231C389.262 463.093 396.862 476.343 404.155 489.181C408.297 496.472 412.497 504.467 417.751 511.019C394.233 531.667 370.802 552.309 348.192 573.96C337.682 584.024 327.664 594.681 317.33 604.935C313.286 608.948 305.671 617.616 300.992 619.88C303.402 613.612 315.248 605.293 320.34 600.303C317.577 595.207 313.465 590.601 310.243 585.74C304.397 576.921 299.619 567.668 295.155 558.081C275.648 516.187 267.847 465.764 275.767 420.156C278.52 404.302 283.227 389.506 288.725 374.429C291.299 369.398 293.232 363.826 295.589 358.659Z"/>
	<path fill="#393939" transform="scale(3.14228 3.14228)" d="M513.087 556.925C521.178 562.491 528.771 569.212 536.458 575.352Q555.385 590.371 574.679 604.915C585.929 613.302 597.349 621.694 608.977 629.541C618.597 636.033 628.751 642.095 637.985 649.106C640.43 650.52 642.847 651.881 645.057 653.653C633.439 661.39 621.866 669.237 608.535 673.703C594.345 679.557 580.176 684.798 565.239 688.45Q563.017 688.987 560.785 689.48Q558.553 689.972 556.312 690.421Q554.07 690.87 551.821 691.275Q549.571 691.679 547.314 692.039Q545.057 692.399 542.793 692.715Q540.529 693.031 538.259 693.302Q535.989 693.573 533.715 693.799Q531.44 694.026 529.162 694.207Q526.883 694.388 524.601 694.525Q522.32 694.662 520.036 694.753Q517.752 694.845 515.466 694.891Q513.181 694.938 510.895 694.94Q508.609 694.941 506.324 694.898Q504.039 694.854 501.754 694.766Q499.47 694.677 497.188 694.544Q494.907 694.411 492.628 694.233Q490.349 694.054 488.074 693.831Q485.799 693.608 483.529 693.34Q481.259 693.072 478.995 692.76Q476.73 692.447 474.473 692.09Q472.215 691.733 469.965 691.332Q467.714 690.93 465.472 690.485Q463.23 690.039 460.998 689.549Q458.765 689.06 456.542 688.526Q454.32 687.993 452.108 687.415Q449.896 686.838 447.696 686.217Q445.496 685.597 443.309 684.933Q441.122 684.269 438.948 683.562Q436.774 682.855 434.615 682.106Q432.455 681.356 430.311 680.564Q428.167 679.773 426.039 678.939Q423.91 678.105 421.799 677.229C413.164 673.614 404.564 669.408 396.369 664.883C392.033 662.489 381.305 654.791 377.695 653.845C377.403 653.769 377.107 653.707 376.814 653.637C382.181 648.626 389.081 645.079 395.208 641.051Q410.116 631.155 424.78 620.902Q452.17 601.34 479.265 581.373C485.947 576.435 497.847 564.972 504.917 562.565Q508.95 559.669 513.087 556.925Z"/>
	<path fill="#00457D" transform="scale(3.14228 3.14228)" d="M513.087 556.925C521.178 562.491 528.771 569.212 536.458 575.352Q555.385 590.371 574.679 604.915C585.929 613.302 597.349 621.694 608.977 629.541C618.597 636.033 628.751 642.095 637.985 649.106C623.795 650.463 607.243 645.994 593.43 642.934C562.517 636.087 518.21 620.638 495.37 598.206C490.137 593.066 486.279 586.948 482.36 580.803C489.558 574.421 498.47 569.861 504.917 562.565Q508.95 559.669 513.087 556.925Z"/>
	<path transform="scale(3.14228 3.14228)" d="M376.814 653.637C382.181 648.626 389.081 645.079 395.208 641.051Q410.116 631.155 424.78 620.902Q452.17 601.34 479.265 581.373C485.947 576.435 497.847 564.972 504.917 562.565C498.47 569.861 489.558 574.421 482.36 580.803C471.977 587.591 462.264 595.524 452.249 602.85C440.987 611.087 429.286 618.883 418.221 627.362C458.177 650.267 490.986 663.012 536.679 670.227C546.974 671.853 557.568 672.644 567.983 673.033C572.997 673.22 606.193 672.239 608.535 673.703C594.345 679.557 580.176 684.798 565.239 688.45Q563.017 688.987 560.785 689.48Q558.553 689.972 556.312 690.421Q554.07 690.87 551.821 691.275Q549.571 691.679 547.314 692.039Q545.057 692.399 542.793 692.715Q540.529 693.031 538.259 693.302Q535.989 693.573 533.715 693.799Q531.44 694.026 529.162 694.207Q526.883 694.388 524.601 694.525Q522.32 694.662 520.036 694.753Q517.752 694.845 515.466 694.891Q513.181 694.938 510.895 694.94Q508.609 694.941 506.324 694.898Q504.039 694.854 501.754 694.766Q499.47 694.677 497.188 694.544Q494.907 694.411 492.628 694.233Q490.349 694.054 488.074 693.831Q485.799 693.608 483.529 693.34Q481.259 693.072 478.995 692.76Q476.73 692.447 474.473 692.09Q472.215 691.733 469.965 691.332Q467.714 690.93 465.472 690.485Q463.23 690.039 460.998 689.549Q458.765 689.06 456.542 688.526Q454.32 687.993 452.108 687.415Q449.896 686.838 447.696 686.217Q445.496 685.597 443.309 684.933Q441.122 684.269 438.948 683.562Q436.774 682.855 434.615 682.106Q432.455 681.356 430.311 680.564Q428.167 679.773 426.039 678.939Q423.91 678.105 421.799 677.229C413.164 673.614 404.564 669.408 396.369 664.883C392.033 662.489 381.305 654.791 377.695 653.845C377.403 653.769 377.107 653.707 376.814 653.637Z"/>
</svg>
